<?xml version="1.0" encoding="UTF-8"?>
<svg xmlns="http://www.w3.org/2000/svg" xmlns:xlink="http://www.w3.org/1999/xlink" viewBox="0 0 2000 2000">
  <defs>
    <style>
      .cls-1 {
        fill: url(#linear-gradient-5);
      }

      .cls-1, .cls-2, .cls-3, .cls-4, .cls-5, .cls-6, .cls-7, .cls-8, .cls-9, .cls-10, .cls-11, .cls-12, .cls-13, .cls-14, .cls-15, .cls-16 {
        stroke: #000;
        stroke-miterlimit: 10;
      }

      .cls-2 {
        fill: url(#linear-gradient-9);
      }

      .cls-3 {
        fill: url(#linear-gradient-4);
      }

      .cls-3, .cls-14 {
        stroke-width: 4px;
      }

      .cls-4 {
        fill: url(#linear-gradient-15);
      }

      .cls-5 {
        fill: url(#linear-gradient-11);
      }

      .cls-6 {
        fill: url(#linear-gradient-6);
      }

      .cls-7 {
        fill: url(#radial-gradient);
      }

      .cls-8 {
        fill: url(#linear-gradient-10);
      }

      .cls-9 {
        fill: url(#linear-gradient-12);
      }

      .cls-10 {
        fill: url(#linear-gradient);
        stroke-width: 9px;
      }

      .cls-11 {
        fill: url(#linear-gradient-7);
      }

      .cls-12 {
        fill: url(#linear-gradient-8);
      }

      .cls-13 {
        fill: url(#linear-gradient-13);
      }

      .cls-14 {
        fill: url(#linear-gradient-3);
      }

      .cls-15 {
        fill: url(#linear-gradient-2);
      }

      .cls-17 {
        fill: #ed1c24;
      }

      .cls-16 {
        fill: url(#linear-gradient-14);
      }
    </style>
    <radialGradient id="radial-gradient" cx="1120.32" cy="1107.89" fx="1120.32" fy="1107.89" r="488.36" gradientUnits="userSpaceOnUse">
      <stop offset="0" stop-color="#3427c2"/>
      <stop offset="1" stop-color="#231130"/>
    </radialGradient>
    <linearGradient id="linear-gradient" x1="657" y1="781.74" x2="1368.78" y2="781.74" gradientUnits="userSpaceOnUse">
      <stop offset="0" stop-color="#090312"/>
      <stop offset=".31" stop-color="#231845"/>
      <stop offset=".52" stop-color="#32125e"/>
      <stop offset="1" stop-color="#221742"/>
    </linearGradient>
    <linearGradient id="linear-gradient-2" x1="1017.27" y1="743.89" x2="1251.25" y2="743.89" gradientTransform="translate(1409.38 -1720.71) rotate(79.28) scale(1.77 .99) skewX(15)" gradientUnits="userSpaceOnUse">
      <stop offset="0" stop-color="#441980"/>
      <stop offset=".16" stop-color="#47318c"/>
      <stop offset=".4" stop-color="#441980"/>
      <stop offset=".63" stop-color="#441980"/>
      <stop offset="1" stop-color="#47318c"/>
    </linearGradient>
    <linearGradient id="linear-gradient-3" x1="954.84" y1="1089.37" x2="1680.53" y2="1089.37" gradientUnits="userSpaceOnUse">
      <stop offset="0" stop-color="#441980"/>
      <stop offset=".08" stop-color="#47318c"/>
      <stop offset=".16" stop-color="#08030d"/>
      <stop offset=".29" stop-color="#441980"/>
      <stop offset=".45" stop-color="#040205"/>
      <stop offset=".57" stop-color="#47318c"/>
      <stop offset=".68" stop-color="#07030a"/>
      <stop offset=".78" stop-color="#441980"/>
      <stop offset=".87" stop-color="#110817"/>
      <stop offset="1" stop-color="#4b3ba8"/>
    </linearGradient>
    <linearGradient id="linear-gradient-4" x1="269.29" y1="1115.2" x2="1023.85" y2="1115.2" gradientUnits="userSpaceOnUse">
      <stop offset="0" stop-color="#441980"/>
      <stop offset=".08" stop-color="#47318c"/>
      <stop offset=".16" stop-color="#08030d"/>
      <stop offset=".29" stop-color="#441980"/>
      <stop offset=".45" stop-color="#040205"/>
      <stop offset=".57" stop-color="#47318c"/>
      <stop offset=".68" stop-color="#07030a"/>
      <stop offset=".78" stop-color="#441980"/>
      <stop offset=".87" stop-color="#110817"/>
      <stop offset="1" stop-color="#47318c"/>
    </linearGradient>
    <linearGradient id="linear-gradient-5" x1="1158.66" y1="782.76" x2="1697.22" y2="782.76" gradientUnits="userSpaceOnUse">
      <stop offset="0" stop-color="#441980"/>
      <stop offset=".31" stop-color="#47318c"/>
      <stop offset=".52" stop-color="#441980"/>
      <stop offset="1" stop-color="#47318c"/>
    </linearGradient>
    <linearGradient id="linear-gradient-6" x1="1625.96" y1="715.19" x2="1741.88" y2="715.19" xlink:href="#linear-gradient-5"/>
    <linearGradient id="linear-gradient-7" x1="1705.06" y1="702.79" x2="1753.72" y2="702.79" xlink:href="#linear-gradient-5"/>
    <linearGradient id="linear-gradient-8" x1="1710.74" y1="713.19" x2="1762.72" y2="713.19" gradientTransform="translate(-70.52 208.7) rotate(-6.69)" xlink:href="#linear-gradient-5"/>
    <linearGradient id="linear-gradient-9" x1="1724.8" y1="731.8" x2="1764.27" y2="731.8" gradientTransform="translate(-108.8 362.89) rotate(-11.45)" xlink:href="#linear-gradient-5"/>
    <linearGradient id="linear-gradient-10" x1="1668.24" y1="767.61" x2="1735.43" y2="767.61" gradientTransform="translate(-20.32 -119.11) rotate(3.8) scale(1.04 1)" xlink:href="#linear-gradient-5"/>
    <linearGradient id="linear-gradient-11" x1="1705.06" y1="688.68" x2="1739.1" y2="688.68" gradientTransform="translate(-388.49 143.97) rotate(-6.83) scale(1.18 1.15)" gradientUnits="userSpaceOnUse">
      <stop offset="0" stop-color="#040108"/>
      <stop offset=".31" stop-color="#1f153d"/>
      <stop offset=".52" stop-color="#260e47"/>
      <stop offset="1" stop-color="#000"/>
    </linearGradient>
    <linearGradient id="linear-gradient-12" x1="1380.69" y1="775.55" x2="1739.06" y2="775.55" gradientTransform="matrix(1,0,0,1,0,0)" xlink:href="#linear-gradient-11"/>
    <linearGradient id="linear-gradient-13" x1="610.3" y1="709.06" x2="1005.24" y2="709.06" gradientTransform="translate(1428.19 2037.6) rotate(-142.07) scale(1.26 1.2)" xlink:href="#linear-gradient-11"/>
    <linearGradient id="linear-gradient-14" x1="908.78" y1="543.79" x2="842.33" y2="492.01" gradientTransform="matrix(1,0,0,1,0,0)" xlink:href="#linear-gradient-11"/>
    <linearGradient id="linear-gradient-15" x1="1025.12" y1="543.04" x2="961.14" y2="493.18" gradientTransform="matrix(1,0,0,1,0,0)" xlink:href="#linear-gradient-11"/>
  </defs>
  <g id="Robe">
    <path class="cls-17" d="M347.76,746.31c-45.27,79.6,8.06,137.95,19.05,281.27,21.23,276.81-181.46,390.11-114.24,501.14,59.48,98.24,274.93,109.72,392.66,94.08,94.18-12.51,173.66-48.91,268.3-7.68,52.2,22.74,75.69,54.58,99.88,44.16,37.79-16.27,25.87-113.47,15.72-231.19,0,0-23.56-168.33-20.62-374.59,4.05-283.88,64.09-387.75-6.85-451.21-57.06-51.04-149.79-32.05-335.27,5.92-164.98,33.78-271.73,55.64-318.64,138.1Z"/>
    <path class="cls-17" d="M1219.39,584.25c91.45,32.77,137.37,118.1,146.53,135.06,54.29,100.58,10.32,161.47,75.3,296.31,6.78,14.06,21.84,37.94,51.95,85.69,102.93,163.2,132.82,182.14,170.51,261.51,38.4,80.87,80.1,169.21,41.45,217.6-40.01,50.09-122.63,2.84-331.56,9.65-203.2,6.63-330.19,58.02-378.17-2.8-18.96-24.03-28.21-68.93-29.73-76.28-7.08-34.37-2.95-54.16-2.98-104.49-.02-25.72-1.05-58.07-4.68-99.69-9.68-111-26-152.6-31.63-216.57-.76-8.63-2.07-35.02-1.6-69.73,1.47-108.32,33.16-113.99,35.23-205.91.61-27.35-1.41-52.65,13.93-60.5,10.84-5.55,22.84,1.47,53.24,14.3,38.2,16.12,76.17,31.88,116.18,36.24,25.94,2.83,59.06,6.43,73.53-10.71,18.88-22.38-1.27-71.62-31.77-98.71-10.99-9.75-37.37-19.05-90.12-37.63-15.09-5.31-35.58-12.24-62.12-18.82-19.47-4.83-48.06-10.92-75.05-6.06-1.57.28-2.71.53-6.93,1.3-15.47,2.83-46.73,8.55-47.22,7.04-1.26-3.92,181-105.09,315.73-56.8Z"/>
    <path class="cls-17" d="M642,629.83c11.52-1.25,118.21-14.58,168.77-107.91,19.45-35.89.15-64.09,23.28-115.76,8.32-18.59,37.69-84.17,91.18-90.25,50.82-5.78,95.58,45.33,114.45,82.4,22.02,43.26,8.25,66.35,23.28,109.87,22.15,64.13,78.71,91.3,120.27,119.68,98.06,66.97,210.35,205.71,206.6,335.62-2.86,98.99-73.75,215.63-188.17,250.74-122.64,37.63-267.08-27.05-335.6-161.89"/>
    <path class="cls-17" d="M1150.42,669c74.31,41.57,127.31,73.48,168.71,100.36,15.22,9.88,40.26,26.46,75.83,30.69,22.99,2.73,40.25-.93,75.83-10.74,80.18-22.11,122.24-31.88,206.34-51.4,12.96-3.01,37.3-8.43,42.27,1.79,3.85,7.91-5.59,21.7-8.95,26.6-32.37,47.27-114.79,68.17-213.72,96.54-56.87,16.31-74.55,22.28-105.69,21.1-36.08-1.37-60.05-11.19-94.84-23.53-37.79-13.41-92.84-31.38-163.15-48.87"/>
    <path class="cls-7" d="M1031.39,641.3c-23.31,2.51-68.09,13-120.81,72.35-106.08,119.42-414.14,627.81-253.08,819.39,43.2,51.38,211.93,46.42,567.66,33.68,300.86-10.78,376.51-28.26,398.65-87.94,27.4-73.87-59.69-124.02-199.99-393.12-105.66-202.66-120.1-299.11-235.78-386.45-82.36-62.19-137.88-59.93-156.65-57.91Z"/>
    <path class="cls-10" d="M657,650.54c10.97-1.17,112.49-13.63,160.62-100.9,18.51-33.56.14-59.93,22.15-108.24,7.92-17.38,35.86-78.71,86.77-84.39,48.37-5.4,90.97,42.39,108.92,77.05,20.95,40.45,7.85,62.04,22.15,102.74,21.08,59.96,74.9,85.37,114.46,111.91,93.32,62.62,200.18,192.36,196.62,313.83-2.72,92.56-70.18,201.63-179.08,234.46-116.72,35.19-254.17-25.3-319.38-151.38"/>
    <ellipse class="cls-15" cx="1126.48" cy="739.35" rx="57.42" ry="228.32" transform="translate(39.8 1536.06) rotate(-69.53)"/>
    <path class="cls-14" d="M1235.31,606.25c81.24,31.07,122.04,111.96,130.17,128.03,48.23,95.34,9.18,153.06,66.9,280.87,6.02,13.33,19.4,35.96,46.15,81.23,91.44,154.7,118,172.65,151.48,247.89,34.12,76.66,71.16,160.4,36.83,206.26-35.54,47.48-108.94,2.68-294.53,9.13-180.5,6.27-293.31,54.98-335.93-2.67-16.84-22.78-25.07-65.34-26.41-72.31-6.29-32.58-2.62-51.34-2.65-99.05-.02-24.38-.94-55.04-4.17-94.49-8.61-105.22-23.11-144.65-28.11-205.29-.67-8.18-1.84-33.19-1.43-66.09,1.3-102.68,29.45-108.05,31.28-195.18.54-25.93-1.25-49.91,12.37-57.35,9.63-5.26,20.29,1.4,47.3,13.56,33.94,15.28,67.66,30.22,103.21,34.35,23.04,2.68,52.47,6.1,65.32-10.14,16.77-21.21-1.13-67.89-28.23-93.57-9.76-9.25-33.19-18.05-80.06-35.67-13.4-5.04-31.61-11.61-55.18-17.85-17.3-4.58-42.7-10.36-66.67-5.74-1.4.27-2.41.5-6.15,1.23-13.74,2.68-41.51,8.1-41.95,6.67-1.12-3.72,160.79-99.6,280.47-53.83Z"/>
    <path class="cls-3" d="M371.96,759.48c-42.68,76.53,7.6,132.64,17.96,270.44,20.02,266.15-171.06,375.09-107.69,481.85,56.07,94.45,259.17,105.5,370.15,90.46,88.78-12.03,163.7-47.03,252.92-7.38,49.21,21.87,71.35,52.48,94.15,42.46,35.62-15.64,24.39-109.1,14.82-222.29,0,0-22.21-161.85-19.44-360.17,3.82-272.95,60.42-372.83-6.46-433.85-53.79-49.07-141.21-30.82-316.05,5.7-155.53,32.48-256.16,53.49-300.37,132.79Z"/>
    <path class="cls-17" d="M1632.69,756.69c-2.07-4.96-16-39.77,1.85-63.69,7.78-10.43,22.23-19.63,28.62-15.69,8.68,5.35-4.56,31.19,4.62,36.92,7.9,4.94,30.02-5.43,37.85-23.08,8.59-19.35-5.12-35.88.92-40.62,9.9-7.75,67.7,20.12,71.08,67.38,1.94,27.18-14.72,52.28-36,65.54-32.86,20.48-67.52,6.99-71.08,5.54"/>
  </g>
  <g id="Arms">
    <path class="cls-1" d="M1174.58,696.5c68.15,33.35,116.76,58.94,154.73,80.5,13.96,7.93,36.92,21.22,69.54,24.62,21.08,2.19,36.91-.75,69.54-8.62,73.54-17.74,112.1-25.57,189.23-41.23,11.89-2.41,34.21-6.76,38.77,1.44,3.53,6.34-5.13,17.4-8.21,21.33-29.69,37.91-105.27,54.68-196,77.44-52.16,13.08-68.37,17.87-96.92,16.92-33.09-1.1-55.07-8.97-86.97-18.87-34.66-10.75-85.14-25.17-149.62-39.2"/>
    <path class="cls-6" d="M1625.96,770.49c14.68-13.96,16.73-24.04,15.88-30.67-1.12-8.85-7.27-10.52-7.12-20.27.17-11.61,9.04-20.16,13.69-24.65,3.97-3.83,5.13-3.48,5.48-3.29,1.45.83.04,5.57-.55,8.22-2.21,9.93-.37,23.94,4.93,28.48,10.43,8.94,41.29-12.79,55.32-25.2,14.44-12.76,16.04-20.04,15.88-24.65-.33-9.79-8.88-16.14-7.12-18.08,1.87-2.07,14.1,2.37,18.08,10.95,4.63,9.99-2.06,25.23-16.98,37.79"/>
    <path class="cls-11" d="M1705.06,717.67c8.2-2.24,20.06-6.81,29.9-16.43,4.28-4.18,9.3-9.23,9.2-15.88-.08-5.36-3.44-9.01-2.3-9.86,1.38-1.03,8.46,2.77,10.93,8.76,3.15,7.65-2.35,16.05-6.9,23-3.8,5.81-10.91,14.84-23.58,23"/>
    <path class="cls-12" d="M1713.28,731.68c14.8-3.07,24.46-9.08,29.7-13,8.41-6.28,10.5-10.95,11.12-14.54.26-1.52.96-5.59-1.26-8.95-2.83-4.28-7.91-4.85-7.7-5.71.24-.97,7.21-1.77,12.03,2.1,4.36,3.5,4.85,9.13,5.01,10.99.83,9.52-5.3,16.96-8.7,21.08-9.02,10.94-20.75,15.41-27.34,17.27"/>
    <path class="cls-2" d="M1728.23,743.81c3.43.65,12.41,1.64,20.98-5.52,1.81-1.51,11.55-9.66,9.95-17.73-.53-2.67-2.27-4.8-1.76-5.28.63-.59,4.4,1.72,6.03,5.06,4.05,8.28-5.37,20.09-6.37,21.33-9.5,11.64-22.98,9.77-26.27,9.18"/>
    <path class="cls-8" d="M1661.84,797.03c5.45-5.75,13.97-12.73,25.15-13.61,9.3-.73,11.58,3.45,19.59,2.33,14.64-2.04,26.87-18.76,28.48-34.65.67-6.59-.59-12.01-1.57-15.17"/>
    <path class="cls-5" d="M1702.31,714.23c10.09-5.07,16.19-11.45,19.44-15.45,5.15-6.33,11.04-13.68,9.68-22.79-.92-6.19-4.99-10.55-7.62-12.87,8.65,2.3,11.63,6.37,12.73,8.33,5.8,10.32-2.69,29.55-24.13,44.84"/>
    <path class="cls-9" d="M1711.26,712.94c-.97-.06-1.97-.08-3.06.01-13.63,1.13-25.78,14.03-46.28,28.01-6.01,4.1-11.07,7.12-14.91,9.42-3.59,2.14-13.23,7.88-23.69,12.92-11.06,5.33-21,8.9-30.31,11.85-41.4,13.09-213.09,58.87-212.31,62.77.52,2.62,71.66-12.84,156.31-22.15,26.15-2.88,51.97-8.45,78.15-11.08,17.54-1.76,29.06-2.4,44.41-8.87,17.78-7.49,18.32-13.37,38.82-22.31,22.44-9.79,30.9-6.72,36.82-16,6.35-9.95,4.83-26.34-4.36-35.9-7.44-7.74-17.56-8.54-19.59-8.67Z"/>
    <path class="cls-13" d="M1163.8,737.59c-17.68-15.64-35-33.86-67.33-45.5-27.36-9.85-49.36-9.19-75.95-13.04-.07,1.26-.09,2.68.02,4.23.16,2.27.54,4.27.97,5.92.03,1.17.08,3.13.18,5.56.22,5.61.46,8.29.75,14.44.07,1.47.17,3.73.26,6.52,17.77,7.61,41.96,17.86,70.75,29.71,154.13,63.47,285.37,109.29,287.23,105.43.68-1.42-123.74-30.91-216.87-113.28Z"/>
    <circle class="cls-16" cx="882.69" cy="523.46" r="33.08"/>
    <circle class="cls-4" cx="1000" cy="523.46" r="31.85"/>
  </g>
</svg>