<?xml version="1.0" encoding="UTF-8"?>
<svg xmlns="http://www.w3.org/2000/svg" xmlns:xlink="http://www.w3.org/1999/xlink" viewBox="0 0 2000 2000">
  <defs>
    <style>
      .cls-1 {
        fill: url(#radial-gradient-2);
      }

      .cls-1, .cls-2, .cls-3, .cls-4, .cls-5, .cls-6 {
        stroke: #000;
        stroke-miterlimit: 10;
      }

      .cls-2 {
        fill: #9e272d;
      }

      .cls-3 {
        fill: #8a272d;
      }

      .cls-4 {
        fill: url(#radial-gradient);
      }

      .cls-5 {
        fill: #79272d;
      }

      .cls-6 {
        fill: #4d4d4d;
      }
    </style>
    <radialGradient id="radial-gradient" cx="763.97" cy="493.34" fx="763.97" fy="493.34" r="75.15" gradientUnits="userSpaceOnUse">
      <stop offset="0" stop-color="#c33e80"/>
      <stop offset=".97" stop-color="#f01300"/>
    </radialGradient>
    <radialGradient id="radial-gradient-2" cx="1000" cy="506.05" fx="1000" fy="506.05" r="75.15" gradientTransform="translate(2000) rotate(-180) scale(1 -1)" xlink:href="#radial-gradient"/>
  </defs>
  <g id="Legs">
    <path class="cls-5" d="M1211.32,1350.56c-50.19,80.9-53.61,201.84-6.92,258.58,43.08,52.35,108.71,23.46,146.65-55.03,35.1-72.62,37.14-169.28,4.96-223.9-34.49-58.54-98.78-53.65-144.69,20.35Z"/>
    <path class="cls-5" d="M696.14,1446.56c-27.1,85.78-1.44,197.92,55.23,239.67,52.28,38.52,106.04-2.85,122.4-83.66,15.13-74.76-6.02-164.24-48.78-207.3-45.83-46.15-104.06-27.2-128.85,51.28Z"/>
    <path class="cls-3" d="M807.25,1280.57c-67.85,57.77-123.33,164.88-119.39,241.43,4.32,83.84,76.22,90.2,154.45,12.42,72.53-72.11,114.96-182.49,100.56-246.19-13.3-58.81-72.03-61.8-135.62-7.66Z"/>
    <path class="cls-3" d="M1275.31,1178.83c64.24,57.61,101.59,153.03,85.37,213.62-15.92,59.49-78.33,65.42-141.25,12.89-64.74-54.05-107.02-150.5-92.47-215.1,14.83-65.85,82.18-70.75,148.34-11.41Z"/>
  </g>
  <g id="Body">
    <path class="cls-5" d="M976.61,785.71l342.33,1.74c-11.7,429.93-133.63,697.06-274.4,700.03-142.27,3.01-320.73-263.6-419.24-703.56l351.31,1.79Z"/>
    <path class="cls-3" d="M1331.77,770.85c0,113.14-163.55,198.44-360.68,193.25-192.21-5.06-351.55-94.82-360.39-202.97-9.05-110.86,142.51-202.8,343.42-202.8s377.64,96.4,377.64,212.52Z"/>
  </g>
  <g id="Arms">
    <path class="cls-2" d="M473.19,980.86c35.98-171.04,42.62-369.01,12.06-515.63-72.76,7.08-152.02,1.2-234.57-7.18-5.96.19-11.96.29-17.98.35-53.5,138.39-81.76,326.12-77.52,498.54,5.54,225.13,67.3,356.01,135.8,351.5,64.83-4.27,140.62-129.87,182.21-327.57Z"/>
    <path class="cls-2" d="M456.08,435.69c-121.62-28.26-208.68-10.81-228.46,30.84-19.67,41.41,24.43,112.44,126.83,176.71,157.57,98.9,403.57,155.54,451.64,63.72,22.85-43.65-44.46-49.59-102.82-103.73-66.42-61.61-146.89-144.23-247.18-167.53Z"/>
    <path class="cls-2" d="M1855.1,1081.45c25.41-198.61,14.84-425.27-33.49-589.89-82.43,14.76-173.48,15.3-268.51,13.3-6.79.76-13.63,1.43-20.49,2.05-48.41,162.93-63.47,379.88-42.82,576.38,26.96,256.56,109.48,400.35,187.29,388.92,73.64-10.82,148.66-161.18,178.04-390.75Z"/>
    <path class="cls-2" d="M1469.41,415.31c202.66-38.53,347.09-.05,358.6,77.78,11.31,76.45-106.46,185.67-295.59,257.6-238.53,90.72-505.71,93.47-534.38-20.65-13.77-54.82,50.22-49.81,119.38-106.74,86.6-71.27,207.28-180.48,351.98-208Z"/>
    <path class="cls-6" d="M308.88,1028.01l149.96,11.63c-11.92,153.62-89.42,274.78-171.69,268.4-82.27-6.38-140.16-138.05-128.24-291.67.03-.32.05-.65.08-.97l149.89,12.6Z"/>
    <polygon class="cls-6" points="346.47 1756.4 63.92 1614.87 45.22 1299.4 309.07 1125.47 591.62 1267.01 610.32 1582.47 346.47 1756.4"/>
    <path class="cls-6" d="M1670.43,1161.84l170.92,4.82c-4.94,175.09-86.15,316.99-179.92,314.35-93.76-2.64-166.86-148.9-161.92-323.98.01-.37.02-.74.03-1.11l170.89,5.92Z"/>
    <polygon class="cls-6" points="1689.13 1862.11 1406.58 1720.57 1387.88 1405.11 1651.73 1231.18 1934.28 1372.71 1952.98 1688.18 1689.13 1862.11"/>
  </g>
  <g id="Head">
    <polygon class="cls-2" points="751.18 738.08 618.62 518.92 731.22 267.13 1051.34 250.17 1199.56 545.79 1013.03 771.56 751.18 738.08"/>
    <path class="cls-4" d="M842.63,500.46c-.59,40.11-37.19,67.82-79.67,63.99-40.32-3.64-74.09-34.83-77.39-71.42-3.48-38.48,27.53-71.15,71.6-71.15,46.69,0,86.09,36.19,85.47,78.59Z"/>
    <path class="cls-1" d="M921.34,513.17c.59,40.11,37.19,67.82,79.67,63.99,40.32-3.64,74.09-34.83,77.39-71.42,3.48-38.48-27.53-71.15-71.6-71.15-46.69,0-86.09,36.19-85.47,78.59Z"/>
  </g>
</svg>