<?xml version="1.0" encoding="UTF-8"?>
<svg xmlns="http://www.w3.org/2000/svg" xmlns:xlink="http://www.w3.org/1999/xlink" viewBox="0 0 2000 2000">
  <defs>
    <style>
      .cls-1 {
        fill: url(#radial-gradient-2);
      }

      .cls-1, .cls-2, .cls-3 {
        stroke: #000;
      }

      .cls-1, .cls-2, .cls-3, .cls-4, .cls-5, .cls-6 {
        stroke-miterlimit: 10;
      }

      .cls-2 {
        fill: #00738c;
      }

      .cls-3 {
        fill: url(#radial-gradient);
      }

      .cls-4 {
        fill: url(#Gold_Dust);
      }

      .cls-4, .cls-5 {
        stroke: #333;
        stroke-width: 4px;
      }

      .cls-5 {
        fill: url(#linear-gradient);
      }

      .cls-6 {
        fill: none;
        stroke: aqua;
        stroke-width: 2px;
      }
    </style>
    <radialGradient id="radial-gradient" cx="938.23" cy="755.5" fx="938.23" fy="755.5" r="26.91" gradientUnits="userSpaceOnUse">
      <stop offset="0" stop-color="#00738c"/>
      <stop offset="1" stop-color="blue"/>
    </radialGradient>
    <radialGradient id="radial-gradient-2" cx="1034.89" fx="1034.89" r="30.2" xlink:href="#radial-gradient"/>
    <linearGradient id="linear-gradient" x1="751.53" y1="989.16" x2="1242.17" y2="989.16" gradientUnits="userSpaceOnUse">
      <stop offset="0" stop-color="#c45900"/>
      <stop offset=".18" stop-color="#c26200"/>
      <stop offset=".49" stop-color="#be7b01"/>
      <stop offset=".55" stop-color="#bd8202"/>
      <stop offset=".87" stop-color="#cfb200"/>
      <stop offset=".99" stop-color="#bf6f00"/>
    </linearGradient>
    <linearGradient id="Gold_Dust" data-name="Gold Dust" x1="822.85" y1="1212.49" x2="1186.54" y2="1212.49" gradientUnits="userSpaceOnUse">
      <stop offset="0" stop-color="#ff7300"/>
      <stop offset=".18" stop-color="#f97c00"/>
      <stop offset=".47" stop-color="#ea9502"/>
      <stop offset=".55" stop-color="#e59e03"/>
      <stop offset=".87" stop-color="#e5c500"/>
      <stop offset=".99" stop-color="#bf6f00"/>
    </linearGradient>
  </defs>
  <g id="Legs">
    <path class="cls-2" d="M974.49,1280.54c3.49-2.19,47.89-29.34,75.48-11.33,32.15,20.99.92,76.84,35.07,121.12,28.05,36.37,85.87,46.32,126.61,36.19,51.07-12.7,71.57-56.03,87.47-46.27,13.54,8.3,10.33,46.83-2.44,73.59-8.4,17.61-19.9,27.94-29.2,36.01-58.64,50.95-87.96,76.43-108.55,76.83-48.56.96-96.5-47.57-112.11-92.12-7.76-22.15-3.32-31.3-17.11-73.84-16.38-50.53-30.36-61.39-34.78-64.53-22.8-16.21-45.97-8.18-49.65-19.63-3.74-11.65,17.45-28.64,29.2-36.01Z"/>
    <path class="cls-2" d="M939.46,1272.59c-16.93-6.22-56,27.83-60.72,65.64-3.56,28.55,15.55,34.47,30.36,85.33,7.85,26.98,17.87,61.4,6.56,96.82-12.48,39.09-40.2,45.76-36.1,68.1,4.25,23.2,39.94,47.68,68.1,36.1,21.05-8.65,29.27-33.91,28.72-52.51-.61-20.61-17.85-24.98-22.15-45.13-5-23.41,14.05-30.35,19.69-58.26,9.07-44.83-32.13-54.74-27.9-106.67,2.11-25.85,14.07-44.82,4.1-73.85-4.26-12.41-8.45-14.78-10.67-15.59Z"/>
    <path class="cls-2" d="M978.03,1256.18c-21.2,7.82-24.24,45.25-27.9,90.26-2.61,32.08-2.69,73.03,7.38,120.62,6.09,28.77,9.35,43.43,19.69,56.62,16.44,20.96,31.47,19.1,63.18,46.77,20.5,17.9,32.55,28.41,35.28,45.13,4.72,28.91-23.32,46.43-15.59,58.26,7.96,12.18,48.26,9.77,66.46-13.95,12.98-16.91,9.47-37.81,9.03-40.21-3.99-21.7-18.88-22.06-32-46.77-14.99-28.25-1.4-38.84-17.23-71.38-4.59-9.44-12.63-19.7-28.72-40.21-21.36-27.24-27.34-30.02-33.64-45.13-2.33-5.6-9.78-24.1-6.56-46.77,3.21-22.61,13.32-23.31,16.41-43.49,3.26-21.33-3.39-50.91-25.44-64-3.92-2.33-17.6-10.45-30.36-5.74Z"/>
    <path class="cls-2" d="M917.5,1253.52c-63.53,70.45-112.73,146.61-112.73,146.61-3.68,5.72-7.99,13.19-12.05,22.3-3.1,6.95-8.03,18.17-10.53,32.1-3.62,20.2,2.31,21.28-1.05,40.31-1.26,7.17-4.03,21.85-15.21,36.07-2.45,3.12-8.95,10.69-19.16,17.02-26.64,16.51-53.87,9.32-58.28,8.07-12.27-8.02-24.54-16.04-36.81-24.06-17.66-10.98-35.32-21.96-52.97-32.94-10.89-3.35-22.64.18-29.47,8.78-5.96,7.5-7.34,17.82-3.7,26.94l44.93,35.9c10.47,6.69,25.96,14.99,46.06,20.62,21.28,5.96,39.8,6.72,52.58,6.25,17.1-2.78,49.44-10.39,82.18-34.19,28.71-20.87,45.13-45.02,53.5-59.57,25.21-28.41,40.32-54.24,49.43-72.47,17.68-35.37,20.71-57.99,43.35-98,11.81-20.87,23.46-36.74,31.27-46.71-.34-2.04-4.01-21.76-22.42-30.69-13.13-6.38-25.58-3.29-28.91-2.35Z"/>
    <path class="cls-2" d="M1102.93,1192.18l-22.75,39.16c32.2,29.25,68.64,59.65,109.51,89.85,50.54,37.35,99.08,67.91,143.64,92.92,2.3,1.4,36.92,23.3,39.11,67.58,1.46,29.65-12.17,58.02-35.55,74.11-10.21,2.1-32.4,5.14-58.31-4.22-24.89-8.99-40.56-24.86-47.64-33.02-10.47-5.23-22.84-2.7-30.58,6.14-8.26,9.44-9.5,24.1-2.84,35.32,7.92,12.82,22.24,32.03,45.51,46.84,49.1,31.25,100.07,18.76,112.35,15.36,13.52-3.3,50.62-14.37,81.06-51.45,37.33-45.47,38.47-98.16,38.4-111.35.22-14.64-1-54.07-25.6-92.92-19.1-30.17-43.15-45.52-55.46-52.22-22.28-12.54-44.56-25.09-66.84-37.63-25.23-16.9-57.06-35.14-95.28-50.68-49.18-20-93.74-29.34-128.7-33.79Z"/>
    <path class="cls-2" d="M1075.93,1227.04l-33.44,23.26c6.78,20.62,14.23,37.59,20.69,50.67,15.63,31.62,31.9,53.36,39.53,63.03,1.73,2.19,3.18,3.98,4.18,5.19,12.02,15.18,24.04,30.37,36.06,45.55,32.59,41.17,28.94,37.76,32.46,41.74,9.91,11.23,25.49,27.05,48.08,43.14,13.74,8.77,36.62,20.89,67.08,26.06,20.29,3.44,60.2,8.03,103.57-13.28,18.77-9.22,48.08-26.91,75.12-59.4,29.97-36.01,42.07-72.1,47.8-89.69,8.16-24.99,11.86-47.63,13.51-65.71-5.65-22.19-23.74-35.16-40.23-32.13-16.04,2.95-24.37,19.89-25.35,21.96-4.59,13.97-13.94,36.75-32.86,58.83-25.49,29.74-54.21,41.72-67.99,46.39-16.5,5.63-44.48,12.52-78.31,7.81-54.78-7.64-89.9-40.84-102.61-54.22-35.76-39.74-71.52-79.48-107.28-119.21Z"/>
    <path class="cls-2" d="M886.61,1203.58c-21.83-.58-34.68,21.23-55.47,42.14,0,0-36.76,36.96-88.08,55.01-41.87,14.72-54,2.27-81.33,20.61-19.81,13.29-29.24,30.42-42.77,54.99-19.42,35.28-34.4,62.5-22.1,82.76,10.82,17.84,40.26,26.13,58.4,16.91,14.86-7.55,11.41-21.38,30.44-54.69,4.29-7.5,19.5-33.13,44.4-55.14,21.76-19.23,26.79-14.38,55.33-34.71,26.06-18.56,22.73-23.22,66.61-64.58,34.65-32.66,54.99-46.97,50.86-56.55-2.76-6.39-14.7-6.71-16.27-6.75Z"/>
    <polyline class="cls-6" points="738.23 1084.69 808.38 1089 808.38 1129.06 831.15 1121.62"/>
  </g>
  <g id="Arms">
    <path class="cls-2" d="M935.51,1219.35c-33.56-10.51-70.41,14.97-116.53,47.74-29.41,20.9-51.97,37.22-74.05,67.15-16.57,22.46-28.21,38.24-32.29,62.55-5.23,31.1,6.98,46.03-5.2,63.81-11.19,16.36-33.03,20.56-46.21,23.1-33.72,6.49-50.22-6.54-60.52,2.58-13.97,12.37-9.95,49.36,8.88,71.1,25.87,29.86,78.5,29.52,108.94,7.56,25.64-18.49,32.51-50.12,36.08-66.5,7.69-35.41-3.37-50.1,6.78-79.09,9.57-27.35,29.78-43.33,36.6-48.89,30.64-24.92,45.08-11.89,71.27-33.61,29.52-24.47,16.83-45.69,50.74-72.95,17.66-14.2,35.76-20.23,34.59-30.12-1.03-8.77-16.39-13.58-19.08-14.43Z"/>
    <polyline class="cls-6" points="701.31 1106.88 678.54 1106.88 681.62 1089.62 634.01 1104.23"/>
    <polyline class="cls-6" points="1292.38 1028.69 1331.15 1000 1302.54 967.77 1339.77 958.23"/>
    <polyline class="cls-6" points="1268.38 1038.85 1213.62 1026.85 1213.62 1070.04 1195.15 1079.15"/>
    <path class="cls-2" d="M1165.51,861.51c-23.27,2.35-46.63,35.66-40.21,58.26,6.75,23.73,40.66,15.57,82.87,50.87,12.75,10.66,46.85,39.19,46.77,79.59,0,3.95-.42,29.75-18.05,50.87-18.79,22.5-42.36,21.99-42.67,32.82-.35,12.53,30.91,24.84,54.97,28.72,16.55,2.67,52.12,8.4,82.87-15.59,26.64-20.78,42.28-58.09,33.64-88.62-8.48-29.97-39.19-49.25-64-64.82-24.5-15.38-41.7-19.48-50.87-38.56-6.97-14.5-5.51-29.77-3.28-40.21-10.59-10.63-26.33-24.78-47.59-38.56-23.24-15.07-30.65-15.16-34.46-14.77Z"/>
    <path class="cls-2" d="M849.08,865.88c9.34,2.61,47.81,13.35,49.23,34.46,1.05,15.58-18.26,34.22-47.59,41.03,0,0-25.82,21.02-45.95,46.77-2.3,2.95-30.3,39.47-40.21,86.97-17.48,83.84,37.73,123.57,13.13,162.46-20.47,32.36-83.53,44.12-117.33,18.05-36.47-28.12-31.32-94.43-7.38-132.1,26.03-40.97,68.21-38.54,82.05-77.13,9.87-27.51-13.47-36.11-11.49-75.49,2.3-45.68,34.16-97.07,78.77-107.49,20.67-4.83,39.07.31,46.77,2.46Z"/>
    <path class="cls-2" d="M1231.15,1137.54c2.05,1.31,192,50.54,192,50.54l-64-118.03"/>
    <polyline class="cls-2" points="645.31 1198.74 703.56 1297.21 769.21 1198.74"/>
    <polyline class="cls-6" points="1355.46 1020.38 1319.77 1068.38 1343.15 1111.15 1381.92 1145.62 1423.15 1150.85 1447.15 1188.08"/>
    <polyline class="cls-6" points="1233.62 1054.85 1293 1066.54 1281.62 1116.69 1311.46 1134.54"/>
    <polyline class="cls-6" points="1246.17 1186.23 1228.69 1148.38 1257.31 1133.31 1251.46 1121.62"/>
    <polyline class="cls-6" points="678.54 1161 608.38 1198.74 634.01 1254.74 608.38 1276.08"/>
    <path class="cls-6" d="M689,1137.62l47.38-20.92s14.77,36.92,14.77,40.62,43.69-20.31,43.69-20.31"/>
    <polyline class="cls-6" points="710.54 1224.38 734.54 1188.08 773.51 1247.97 805.92 1227.04 822.85 1227.04"/>
    <polyline class="cls-6" points="671.77 1145.62 664.38 1129.06 641.34 1148.19 624.38 1134.54"/>
  </g>
  <g id="Head">
    <path class="cls-2" d="M895.56,837.31c-11.3-24.52,12.48-66.89-10.67-93.54-2.98-3.43-8.94-9.14-9.85-18.05-1.53-15.13,12.66-28.11,18.87-33.64,29.23-26.04,70.19-28.28,100.1-29.54,35.57-1.5,76.06-2.68,100.92,22.15,5.11,5.1,16.09,16.07,13.95,29.54-1.68,10.56-11.17,13.58-17.23,21.33-19.02,24.34,19.48,64.23,10.67,91.9-15.85,49.73-184.21,58.78-206.77,9.85Z"/>
    <path class="cls-2" d="M985.82,672.38c-74.33,3.57-110.88,72.73-127.18,62.36-31.26-19.9,54.47-305.29,152.62-301.13,94.55,4.01,161.05,275.03,122.26,298.67-22.47,13.7-66.92-63.77-147.69-59.9Z"/>
    <circle class="cls-3" cx="938.23" cy="755.5" r="26.91"/>
    <circle class="cls-1" cx="1034.89" cy="755.5" r="30.2"/>
  </g>
  <g id="Armor">
    <path class="cls-5" d="M834.85,842.64c-24.81,27.63-76.76,13.74-82.87,35.28-1.26,4.45.25,8.71,3.28,17.23.98,2.77,11.06,30.09,30.36,35.28,21.9,5.89,38.8-21.25,49.23-15.59,12.34,6.7-1.31,50.12-5.74,75.49-10.29,58.89,6.4,140.79,54.97,184.62,61.45,55.43,178.41,52.5,238.77-5.74,49.32-47.59,62.07-133.27,48.41-194.46-6.65-29.78-23.29-70.46-10.67-78.77,9.2-6.06,23.9,11.71,49.23,6.56,2.84-.58,25.76-5.56,31.18-22.97,3.17-10.18-.36-22.36-7.38-30.36-17.63-20.09-46.3-1.35-68.1-18.05-25.11-19.23-11.57-62.85-26.26-67.28-12.29-3.71-22.99,26.45-50.87,50.05-44.05,37.29-120.1,49-169.03,21.33-40.37-22.83-53.1-67.26-66.46-62.36-12.97,4.76,4.52,44.61-18.05,69.74Z"/>
    <path class="cls-4" d="M874.23,1125.9c-15.99,8.15-52.83,26.92-51.34,47.73,1.64,22.86,47.62,21.39,84.64,68.61,22.86,29.16,15.06,42.14,36.31,60.9,28.5,25.17,77.29,32.52,106.61,10.69,25.81-19.22,13.23-43.7,40.01-76.31,37.27-45.4,93.06-36.2,95.97-57.92,3.1-23.11-57.83-50.07-69.38-55.18-17.7-7.84-130.67-55.65-242.82,1.49Z"/>
  </g>
</svg>