<?xml version="1.0" encoding="UTF-8"?>
<svg xmlns="http://www.w3.org/2000/svg" xmlns:xlink="http://www.w3.org/1999/xlink" viewBox="0 0 2000 2000">
  <defs>
    <style>
      .cls-1 {
        fill: url(#linear-gradient);
      }

      .cls-1, .cls-2, .cls-3, .cls-4, .cls-5, .cls-6, .cls-7, .cls-8 {
        stroke-miterlimit: 10;
      }

      .cls-1, .cls-2, .cls-3, .cls-4, .cls-7 {
        stroke: #000;
      }

      .cls-2 {
        fill: #fff;
      }

      .cls-3 {
        fill: url(#linear-gradient-4);
      }

      .cls-4 {
        fill: url(#linear-gradient-3);
      }

      .cls-5 {
        fill: url(#radial-gradient-2);
      }

      .cls-5, .cls-6, .cls-8 {
        stroke: aqua;
      }

      .cls-6 {
        fill: url(#radial-gradient);
      }

      .cls-7 {
        fill: url(#linear-gradient-2);
      }

      .cls-8 {
        fill: url(#radial-gradient-3);
      }
    </style>
    <linearGradient id="linear-gradient" x1="570.51" y1="874.41" x2="887.49" y2="874.41" gradientUnits="userSpaceOnUse">
      <stop offset="0" stop-color="#61b5c2"/>
      <stop offset="1" stop-color="#9cb1db"/>
    </linearGradient>
    <radialGradient id="radial-gradient" cx="508.27" cy="796.11" fx="508.27" fy="796.11" r="61.67" gradientTransform="translate(711.81 -126.23) rotate(45)" gradientUnits="userSpaceOnUse">
      <stop offset="0" stop-color="#00d0f0"/>
      <stop offset="1" stop-color="#3075ff"/>
    </radialGradient>
    <linearGradient id="linear-gradient-2" x1="668.86" y1="905.75" x2="733.83" y2="905.75" gradientUnits="userSpaceOnUse">
      <stop offset="0" stop-color="#00d0f0"/>
      <stop offset="1" stop-color="#3075ff"/>
    </linearGradient>
    <linearGradient id="linear-gradient-3" x1="586.98" y1="945.2" x2="665.36" y2="945.2" gradientUnits="userSpaceOnUse">
      <stop offset="0" stop-color="#00d0f0"/>
      <stop offset="1" stop-color="#3075ff"/>
    </linearGradient>
    <linearGradient id="linear-gradient-4" x1="923.67" y1="675.25" x2="1063.57" y2="675.25" xlink:href="#linear-gradient"/>
    <radialGradient id="radial-gradient-2" cx="962.35" cy="669.73" fx="962.35" fy="669.73" r="21.96" gradientTransform="matrix(1,0,0,1,0,0)" xlink:href="#radial-gradient"/>
    <radialGradient id="radial-gradient-3" cx="1027.24" cy="669.73" fx="1027.24" fy="669.73" r="23.17" gradientTransform="matrix(1,0,0,1,0,0)" xlink:href="#radial-gradient"/>
  </defs>
  <g id="Layer_1">
    <path class="cls-2" d="M877.06,1144.29c-16.42,12.48-22.58,33.31-34.9,74.98-7.95,26.87-17.72,60.97-16.08,106.59.63,17.54,4.34,35.87,11.76,72.52,12.46,61.55,20.02,69.39,27.46,73.18,17.53,8.91,45.67,1.01,52.18-14.18,6.91-16.11-15.64-28.49-31.44-68.31-2.12-5.36-20.28-52.93-6.25-106.58,4.63-17.71,13.47-45.89,40.65-62.16,25.25-15.11,63.23-17.7,82.66.26,11.36,10.5,5.89,18.33,21.93,62.56,5.23,14.43,11.44,31.31,23.02,51.29,10.04,17.3,18.96,28.07,33.64,45.75,21.57,26,32.59,39.03,44.25,40.22,15.63,1.6,35.9-8.76,40.05-23.77,5.1-18.48-18.11-30.14-53.11-84-18.86-29.01-28.29-43.9-28.59-62.26-.34-20.93,9.03-28.3,9.73-58.69.47-20.43,1.08-33.76-6.66-44-12.13-16.06-32.14-13.9-110.79-13.43-73.46.44-84.65-1.28-99.5,10.01Z"/>
    <path class="cls-2" d="M1015.78,754.44c-53.93-3.43-95.12,11-120,20-25.95,9.39-23.62,12.05-77.78,37.78-25.13,11.94-63.85,30.25-113.33,44.44-15.94,4.57-20.17,5.05-22.74,5.26-45.12,3.7-66.3-33.18-88.37-25.26-18.23,6.54-30.33,41.21-20,62.22,18.25,37.11,108.21,27.01,131.11,24.44,62.77-7.04,79.93-27.28,111.11-13.33,37.28,16.67,49.94,62.22,51.11,66.67,4.88,18.53,2.08,29.37-2.22,71.11-7.32,70.94-14.33,78.51-6.67,88.89,13.86,18.78,46.38,9.84,126.67,6.67,67.81-2.68,83.81,15.41,100,0,8.14-7.75,9.37-16.97,6.67-108.89-1.27-43.25-2.24-65,4.44-95.56,5.64-25.75,11.88-54.27,31.11-60,17.9-5.33,39.92,11.2,51.11,26.67,10.84,14.98,8.68,25.01,17.78,71.11,10.63,53.88,17.42,59.65,22.22,62.22,17.33,9.27,47.86-2.33,57.78-22.22,2.04-4.09,5.69-13.5-11.11-64.44-10.14-30.76-15.22-46.14-24.44-62.22-18.47-32.19-40.57-51.54-55.56-64.44-12.13-10.44-33.85-27.41-64.44-42.22-17.33-8.39-53.94-25.67-104.44-28.89Z"/>
  </g>
  <g id="Arms">
    <path class="cls-1" d="M803.77,817.62c-24.46,11.29-44.02,20.21-72,27.69-36.72,9.82-58.94,15.77-85.85,9.23-30.01-7.29-37.86-23.31-52.37-17.87-19.39,7.26-30.64,45.34-17.1,66.97,9.18,14.66,27.85,18.71,47.32,21.02,106.71,12.67,159.73-36.12,206.39-7.75,32.41,19.71,33.21,59.31,43.76,57.63,10.6-1.69,18.32-43,10.15-200.31-31.4,19.57-59.15,33.62-80.31,43.38Z"/>
    <circle class="cls-6" cx="508.27" cy="796.11" r="61.67" transform="translate(-414.07 592.58) rotate(-45)"/>
    <path class="cls-7" d="M705,832.5c-4.96-3.71-12.94-3.66-18.46-.92-23.63,11.71-26.12,84.53,8.31,125.54,13.05,15.54,32.69,28.06,37.85,24,4.06-3.2-3.52-14.61-11.08-41.54-6.12-21.79-12.18-43.4-12-70.15.12-18.49,3.17-31.09-4.62-36.92Z"/>
    <path class="cls-4" d="M633.92,829.62c3.69,2.15,7.38,4.31,11.08,6.46-35.24,53.58-37.91,92.81-32.31,120,10.9,52.87,60.19,94.49,51.69,103.38-3.29,3.45-12.72-.67-17.54-2.77-37.57-16.39-51.2-59.77-54.46-70.15-22.91-72.92,33.93-147.25,41.54-156.92Z"/>
  </g>
  <g id="Head">
    <circle class="cls-3" cx="993.62" cy="675.25" r="69.95"/>
    <circle class="cls-5" cx="962.35" cy="669.73" r="21.96"/>
    <circle class="cls-8" cx="1027.24" cy="669.73" r="23.17"/>
  </g>
</svg>