<?xml version="1.0" encoding="UTF-8"?>
<svg xmlns="http://www.w3.org/2000/svg" xmlns:xlink="http://www.w3.org/1999/xlink" viewBox="0 0 2000 2000">
  <defs>
    <style>
      .cls-1 {
        fill: url(#linear-gradient);
      }

      .cls-1, .cls-2, .cls-3, .cls-4, .cls-5, .cls-6, .cls-7, .cls-8, .cls-9, .cls-10, .cls-11, .cls-12, .cls-13, .cls-14 {
        stroke-miterlimit: 10;
      }

      .cls-1, .cls-2, .cls-3, .cls-4, .cls-6, .cls-7, .cls-9, .cls-10, .cls-11, .cls-12 {
        stroke: #000;
      }

      .cls-2 {
        fill: url(#linear-gradient-5);
      }

      .cls-3, .cls-5 {
        fill: none;
      }

      .cls-4 {
        fill: url(#linear-gradient-9);
      }

      .cls-15 {
        fill: url(#linear-gradient-2);
      }

      .cls-5, .cls-8, .cls-13, .cls-14 {
        stroke: aqua;
      }

      .cls-6 {
        fill: url(#radial-gradient-2);
      }

      .cls-7 {
        fill: url(#linear-gradient-6);
      }

      .cls-8 {
        fill: url(#radial-gradient-4);
      }

      .cls-9 {
        fill: url(#linear-gradient-4);
      }

      .cls-10 {
        fill: url(#linear-gradient-3);
      }

      .cls-11 {
        fill: url(#linear-gradient-7);
      }

      .cls-12 {
        fill: url(#linear-gradient-8);
      }

      .cls-13 {
        fill: url(#radial-gradient);
      }

      .cls-14 {
        fill: url(#radial-gradient-3);
      }
    </style>
    <linearGradient id="linear-gradient" x1="1003.78" y1="504.12" x2="1035.47" y2="1523.92" gradientUnits="userSpaceOnUse">
      <stop offset="0" stop-color="#c0c2c2"/>
      <stop offset=".68" stop-color="#3e77d0"/>
      <stop offset=".99" stop-color="#7cb9c2"/>
    </linearGradient>
    <linearGradient id="linear-gradient-2" x1="829.58" y1="1296.4" x2="1569.92" y2="1296.4" gradientUnits="userSpaceOnUse">
      <stop offset="0" stop-color="#c0c2c2"/>
      <stop offset="1" stop-color="#bcc7db"/>
    </linearGradient>
    <linearGradient id="linear-gradient-3" x1="829.61" y1="1296.12" x2="1170.39" y2="1296.12" gradientTransform="translate(15.11 -1.52) rotate(.13) scale(.98 1) skewX(.26)" xlink:href="#linear-gradient-2"/>
    <linearGradient id="linear-gradient-4" x1="569.76" y1="957.19" x2="1277.59" y2="957.19" xlink:href="#linear-gradient-2"/>
    <linearGradient id="linear-gradient-5" x1="959.28" y1="658.88" x2="976.35" y2="1208.29" gradientTransform="scale(1 1.11)" xlink:href="#linear-gradient"/>
    <linearGradient id="linear-gradient-6" x1="570.51" y1="874.41" x2="887.49" y2="874.41" xlink:href="#linear-gradient-2"/>
    <radialGradient id="radial-gradient" cx="508.27" cy="796.11" fx="508.27" fy="796.11" r="61.67" gradientTransform="translate(711.81 -126.23) rotate(45)" gradientUnits="userSpaceOnUse">
      <stop offset="0" stop-color="#00d0f0"/>
      <stop offset="1" stop-color="#3075ff"/>
    </radialGradient>
    <linearGradient id="linear-gradient-7" x1="668.86" y1="905.75" x2="733.83" y2="905.75" gradientUnits="userSpaceOnUse">
      <stop offset="0" stop-color="#00d0f0"/>
      <stop offset="1" stop-color="#3075ff"/>
    </linearGradient>
    <linearGradient id="linear-gradient-8" x1="586.98" y1="945.2" x2="665.36" y2="945.2" gradientUnits="userSpaceOnUse">
      <stop offset="0" stop-color="#00d0f0"/>
      <stop offset="1" stop-color="#3075ff"/>
    </linearGradient>
    <radialGradient id="radial-gradient-2" cx="978.31" cy="962.72" fx="978.31" fy="962.72" r="210.44" gradientUnits="userSpaceOnUse">
      <stop offset=".07" stop-color="#5a96c3"/>
      <stop offset=".17" stop-color="#84c2c2"/>
      <stop offset=".29" stop-color="#5a96c3"/>
      <stop offset=".39" stop-color="#84c2c2"/>
      <stop offset=".49" stop-color="#5a96c3"/>
      <stop offset=".57" stop-color="#84c2c2"/>
      <stop offset=".68" stop-color="#5a96c3" stop-opacity=".99"/>
      <stop offset=".83" stop-color="#84c2c2"/>
      <stop offset=".93" stop-color="#4077db"/>
      <stop offset="1" stop-color="#7cb9c2" stop-opacity="1"/>
    </radialGradient>
    <linearGradient id="linear-gradient-9" x1="923.67" y1="675.25" x2="1063.57" y2="675.25" xlink:href="#linear-gradient-2"/>
    <radialGradient id="radial-gradient-3" cx="962.35" cy="669.73" fx="962.35" fy="669.73" r="21.96" gradientTransform="matrix(1,0,0,1,0,0)" xlink:href="#radial-gradient"/>
    <radialGradient id="radial-gradient-4" cx="1027.24" cy="669.73" fx="1027.24" fy="669.73" r="23.17" gradientTransform="matrix(1,0,0,1,0,0)" xlink:href="#radial-gradient"/>
  </defs>
  <g id="Layer_5">
    <path class="cls-1" d="M857.21,1146.03c34-8.64,62.95-13.21,84.31-15.79,39.74-4.81,61.62-7.27,89.44-1.23,28.61,6.21,50.16,18.52,63.59,27.69.29,20.83,2.83,51.96,14.36,87.38,3.86,11.86,22.83,67.56,83.28,130.87,63.51,66.52,112.89,78.69,109.13,96-3.07,14.1-40.38,27.01-201.03,17.64-56.41-79.24-86.57-147.07-103.79-195.49-10.17-28.58-23-70.54-28.51-69.33-5.19,1.14.05,39.64,2.26,68.72,3.67,48.45,2.41,116.59-19.49,202.46-61.26,1.37-122.53,2.73-183.79,4.1,11.38-45.62,21.33-82.8,28.31-108.31,17.98-65.71,26.52-91.46,39.18-142.15,10.87-43.53,18.26-79.33,22.77-102.56Z"/>
  </g>
  <g id="Layer_6">
    <path class="cls-15" d="M879.26,1135.95c-16.03,12.44-22.01,33.26-33.98,74.89-7.71,26.85-17.2,60.92-15.5,106.53.65,17.54,4.32,35.87,11.66,72.53,12.32,61.56,19.74,69.42,27.02,73.22,17.17,8.95,44.68,1.11,51.01-14.06,6.72-16.09-15.36-28.52-30.9-68.36-2.09-5.36-19.95-52.97-6.35-106.57,4.49-17.7,13.08-45.85,39.63-62.05,24.67-15.05,61.82-17.56,80.87.44,11.14,10.53,5.8,18.34,21.59,62.6,5.15,14.44,11.26,31.33,22.64,51.33,9.86,17.32,18.61,28.1,33.01,45.82,21.16,26.04,31.97,39.09,43.37,40.31,15.29,1.63,35.11-8.68,39.13-23.67,4.95-18.47-17.78-30.17-52.15-84.09-18.51-29.05-27.77-43.95-28.11-62.3-.38-20.93,8.77-28.28,9.39-58.65.42-20.43.98-33.75-6.61-44-11.9-16.08-31.48-13.96-108.42-13.67-71.86.28-82.82-1.46-97.32,9.79Z"/>
    <path class="cls-10" d="M879.26,1135.95c-16.03,12.44-22.01,33.26-33.98,74.89-7.71,26.85-17.2,60.92-15.5,106.53.65,17.54,4.32,35.87,11.66,72.53,12.32,61.56,19.74,69.42,27.02,73.22,17.17,8.95,44.68,1.11,51.01-14.06,6.72-16.09-15.36-28.52-30.9-68.36-2.09-5.36-19.95-52.97-6.35-106.57,4.49-17.7,13.08-45.85,39.63-62.05,24.67-15.05,61.82-17.56,80.87.44,11.14,10.53,5.8,18.34,21.59,62.6,5.15,14.44,11.26,31.33,22.64,51.33,9.86,17.32,18.61,28.1,33.01,45.82,21.16,26.04,31.97,39.09,43.37,40.31,15.29,1.63,35.11-8.68,39.13-23.67,4.95-18.47-17.78-30.17-52.15-84.09-18.51-29.05-27.77-43.95-28.11-62.3-.38-20.93,8.77-28.28,9.39-58.65.42-20.43.98-33.75-6.61-44-11.9-16.08-31.48-13.96-108.42-13.67-71.86.28-82.82-1.46-97.32,9.79Z"/>
    <path class="cls-3" d="M879.26,1135.95c-16.03,12.44-22.01,33.26-33.98,74.89-7.71,26.85-17.2,60.92-15.5,106.53.65,17.54,4.32,35.87,11.66,72.53,12.32,61.56,19.74,69.42,27.02,73.22,17.17,8.95,44.68,1.11,51.01-14.06,6.72-16.09-15.36-28.52-30.9-68.36-2.09-5.36-19.95-52.97-6.35-106.57,4.49-17.7,13.08-45.85,39.63-62.05,24.67-15.05,61.82-17.56,80.87.44,11.14,10.53,5.8,18.34,21.59,62.6,5.15,14.44,11.26,31.33,22.64,51.33,9.86,17.32,18.61,28.1,33.01,45.82,21.16,26.04,31.97,39.09,43.37,40.31,15.29,1.63,35.11-8.68,39.13-23.67,4.95-18.47-17.78-30.17-52.15-84.09-18.51-29.05-27.77-43.95-28.11-62.3-.38-20.93,8.77-28.28,9.39-58.65.42-20.43.98-33.75-6.61-44-11.9-16.08-31.48-13.96-108.42-13.67-71.86.28-82.82-1.46-97.32,9.79Z"/>
  </g>
  <g id="Layer_1">
    <path class="cls-9" d="M1015.78,754.44c-53.93-3.43-95.12,11-120,20-25.95,9.39-23.62,12.05-77.78,37.78-25.13,11.94-63.85,30.25-113.33,44.44-15.94,4.57-20.17,5.05-22.74,5.26-45.12,3.7-66.3-33.18-88.37-25.26-18.23,6.54-30.33,41.21-20,62.22,18.25,37.11,108.21,27.01,131.11,24.44,62.77-7.04,79.93-27.28,111.11-13.33,37.28,16.67,49.94,62.22,51.11,66.67,6.31,23.95,1.58,39.72-2.22,71.11-3.23,26.69-5.71,64.91-1.46,112.67,2.45-4.31,6.76-10.68,13.85-16.16,24.76-19.12,48.02.08,107.61-.96,36.75-.64,58.73-8.47,93.12,4.63,5.61,2.14,10.09,4.27,13.05,5.78-.88-3.19-2.1-7.95-3.28-13.77-8.27-40.94,4.95-65.69,3.78-105.52-1.27-43.25-2.24-65,4.44-95.56,5.64-25.75,11.88-54.27,31.11-60,17.9-5.33,39.92,11.2,51.11,26.67,10.84,14.98,8.68,25.01,17.78,71.11,10.63,53.88,17.42,59.65,22.22,62.22,17.33,9.27,47.86-2.33,57.78-22.22,2.04-4.09,5.69-13.5-11.11-64.44-10.14-30.76-15.22-46.14-24.44-62.22-18.47-32.19-40.57-51.54-55.56-64.44-12.13-10.44-33.85-27.41-64.44-42.22-17.33-8.39-53.94-25.67-104.44-28.89Z"/>
  </g>
  <g id="Layer_7">
    <path class="cls-2" d="M860.13,1110.83c38.38,1.63,69.49.28,91.05-1.31,30.15-2.21,47.17-5.28,73.82-2.61,27.28,2.73,49.17,9.91,63.5,15.6,17.48,62.46,34.96,124.91,52.43,187.37-46.68-26.28-85.54-48.25-120.86-68.88-11.79-6.89-28.79-16.9-52.1-17.23-19.44-.28-36.68,6.27-58.67,19.69-22.81,13.93-60.93,41.48-98.86,92.99,16.56-75.21,33.12-150.41,49.68-225.62Z"/>
  </g>
  <g id="Arms">
    <path class="cls-7" d="M803.77,817.62c-24.46,11.29-44.02,20.21-72,27.69-36.72,9.82-58.94,15.77-85.85,9.23-30.01-7.29-37.86-23.31-52.37-17.87-19.39,7.26-30.64,45.34-17.1,66.97,9.18,14.66,27.85,18.71,47.32,21.02,106.71,12.67,159.73-36.12,206.39-7.75,32.41,19.71,33.21,59.31,43.76,57.63,10.6-1.69,18.32-43,10.15-200.31-31.4,19.57-59.15,33.62-80.31,43.38Z"/>
    <circle class="cls-13" cx="508.27" cy="796.11" r="61.67" transform="translate(-414.07 592.58) rotate(-45)"/>
    <path class="cls-11" d="M705,832.5c-4.96-3.71-12.94-3.66-18.46-.92-23.63,11.71-26.12,84.53,8.31,125.54,13.05,15.54,32.69,28.06,37.85,24,4.06-3.2-3.52-14.61-11.08-41.54-6.12-21.79-12.18-43.4-12-70.15.12-18.49,3.17-31.09-4.62-36.92Z"/>
    <path class="cls-12" d="M633.92,829.62c3.69,2.15,7.38,4.31,11.08,6.46-35.24,53.58-37.91,92.81-32.31,120,10.9,52.87,60.19,94.49,51.69,103.38-3.29,3.45-12.72-.67-17.54-2.77-37.57-16.39-51.2-59.77-54.46-70.15-22.91-72.92,33.93-147.25,41.54-156.92Z"/>
    <path class="cls-5" d="M490.64,697.62c-46.77,11.13-81.74,47.51-88.21,91.08-6.98,47.05,22.32,81.91,27.08,87.38"/>
    <path class="cls-5" d="M522.23,721.92c24.2-3.72,48.23,6.09,61.54,25.23,15.98,22.99,13.82,55.61-6.15,78.15"/>
    <path class="cls-5" d="M469.92,883.77c4.71,2.85,22.27,12.68,44.92,8.62,31.06-5.58,45.18-32.52,46.77-35.69"/>
    <path class="cls-5" d="M471.15,944.69c-3.12,1.51-30.73,14.29-57.85,0-23.59-12.43-36.97-40.17-32.62-68.92"/>
    <path class="cls-5" d="M427.46,832.69c-1.68-5.61-11.53-40.56,9.23-74.46,16.46-26.89,41.91-36.34,49.23-38.77"/>
    <path class="cls-5" d="M442.23,786.54c4.54,4.44,14.93,13.32,30.77,16.62,27.15,5.65,48.23-9.7,51.69-12.31"/>
    <path class="cls-5" d="M581.92,778.54c-5.94,10.48-19.5,30.91-44.92,45.54-40.51,23.31-81.24,14.68-91.08,12.31"/>
    <path class="cls-5" d="M495.77,721.31c-3.33,10.67-6.03,24.89-4.31,41.23,5.73,54.47,55.4,84.34,62.77,88.62"/>
    <path class="cls-5" d="M448.38,760.08c9.48,8.86,18.72,13.76,25.85,16.62,25.29,10.12,49.63,4.63,70.15,0,13.14-2.97,24.13-6.89,32.62-10.46"/>
    <path class="cls-5" d="M571.46,837.62c-5.66,2.86-21.2,9.75-41.23,6.77-25.59-3.8-40.27-20.99-43.69-25.23"/>
    <path class="cls-5" d="M508.69,722.54c3.82,11.84,9.29,25.29,17.23,39.38,19.24,34.12,44.07,56.1,61.54,68.92"/>
    <path class="cls-5" d="M445.31,897.31c-3.72-1.82-60.74-30.87-67.08-91.08-5.48-52.07,29.34-104.74,85.54-123.69"/>
    <path class="cls-5" d="M513,931.77c4.63.75,15.74,1.86,26.46-4.31,14.68-8.44,22.58-27.01,19.69-46.77"/>
    <path class="cls-5" d="M482.23,909.62c-5.63-1.19-25.72-6.16-40.62-25.23-17.29-22.14-14.75-46.86-14.15-51.69"/>
    <path class="cls-5" d="M504.38,702.85c20.96-14.89,48.49-17.03,71.38-5.54,22.43,11.26,37.05,33.92,38.15,59.08"/>
    <path class="cls-5" d="M494.54,685c4.83-5.07,32.97-33.69,76.92-33.23,56.83.6,87.39,49.25,89.23,52.31"/>
    <path class="cls-5" d="M605.31,747.77c1.55,1.31,19.11,16.71,16.62,40.62-2.14,20.44-17.33,31.56-19.69,33.23"/>
    <path class="cls-5" d="M618.85,711.46c8.71,8.63,21.42,23.41,30.77,44.92,11.9,27.4,12.39,52.01,11.69,65.23"/>
    <path class="cls-5" d="M651.46,718.85c4.03,2.49,32.49,20.77,36.92,56,2.92,23.25-6.22,41.09-9.85,47.38"/>
    <path class="cls-5" d="M489.31,649.92c-21.39-22.98-54.87-27.75-78.77-12.92-18.71,11.61-29.3,33.84-27.69,57.23"/>
    <path class="cls-5" d="M340.31,722.54c-6.22,11.51-11.9,26.73-12.24,44.71-1.23,64.91,68.36,105.27,74.17,108.52"/>
    <path class="cls-5" d="M475.15,977.92c2.57,1.7,23.84,15.28,48.62,6.77,20.16-6.93,34.63-25.73,36.92-48"/>
  </g>
  <g id="Layer_4">
    <path class="cls-6" d="M925.23,758.38c-26.14-12.96-70.31-8.29-149.54,52.62,22.64,39.6,49.38,98,59.08,171.69,14,106.39-13.8,196.92-8.77,198,2.55.55,11.16-22.4,38.08-127.38,5.33,10.76,10.79,24.38,14.53,40.62,7.65,33.19,4.48,61.64.92,79.38,7.69-.62,15.38-1.23,23.08-1.85,22.43-68.3,39.64-101.56,51.64-99.78,10.37,1.54,16.85,29.26,19.43,83.16,7.33,1.21,14.65,2.41,21.98,3.62,4.45-52.79,13.58-91.81,24.18-92.23,10.58-.42,22.75,37.61,31.38,89.54,6.85.61,13.7,1.22,20.56,1.83,7.46-33.59,14.35-56.8,19.14-56.29,8.04.86,5.39,68.16,9.23,68.31,4.17.16,12.25-78.95,18-153.69,4.83-62.87,4.34-77.35,12-104.31,13.16-46.32,34.93-80.48,50.77-101.54-65.26-65.46-100.72-70.08-120.92-62.77-38.59,13.97-42.46,79.05-70.15,79.38-24.55.29-29.21-50.76-64.62-68.31Z"/>
  </g>
  <g id="Head">
    <circle class="cls-4" cx="993.62" cy="675.25" r="69.95"/>
    <circle class="cls-14" cx="962.35" cy="669.73" r="21.96"/>
    <circle class="cls-8" cx="1027.24" cy="669.73" r="23.17"/>
  </g>
</svg>