<?xml version="1.0" encoding="UTF-8"?>
<svg xmlns="http://www.w3.org/2000/svg" xmlns:xlink="http://www.w3.org/1999/xlink" viewBox="0 0 2000 2000">
  <defs>
    <style>
      .cls-1 {
        fill: url(#linear-gradient-5);
      }

      .cls-1, .cls-2, .cls-3, .cls-4, .cls-5, .cls-6, .cls-7, .cls-8, .cls-9, .cls-10, .cls-11, .cls-12, .cls-13, .cls-14, .cls-15, .cls-16, .cls-17, .cls-18, .cls-19, .cls-20, .cls-21, .cls-22, .cls-23, .cls-24, .cls-25, .cls-26, .cls-27, .cls-28, .cls-29, .cls-30, .cls-31, .cls-32, .cls-33 {
        stroke-miterlimit: 10;
      }

      .cls-1, .cls-2, .cls-3, .cls-4, .cls-5, .cls-6, .cls-7, .cls-8, .cls-9, .cls-11, .cls-12, .cls-13, .cls-14, .cls-15, .cls-16, .cls-17, .cls-18, .cls-19, .cls-20, .cls-21, .cls-22, .cls-23, .cls-24, .cls-25, .cls-26, .cls-27, .cls-28, .cls-30, .cls-32, .cls-33 {
        stroke: #000;
      }

      .cls-2, .cls-10 {
        fill: none;
      }

      .cls-3 {
        fill: url(#Gold_Dust);
      }

      .cls-4 {
        fill: url(#linear-gradient-9);
      }

      .cls-5 {
        fill: url(#linear-gradient-15);
      }

      .cls-6 {
        fill: #fff;
      }

      .cls-7 {
        fill: url(#linear-gradient-23);
      }

      .cls-8 {
        fill: url(#linear-gradient-21);
      }

      .cls-9 {
        fill: url(#linear-gradient-11);
      }

      .cls-10 {
        stroke: #c1272d;
      }

      .cls-11 {
        fill: url(#Gold_Dust-3);
      }

      .cls-12 {
        fill: url(#linear-gradient-6);
      }

      .cls-13, .cls-14, .cls-27 {
        fill: #c1272d;
      }

      .cls-13, .cls-21 {
        stroke-width: 3px;
      }

      .cls-14 {
        stroke-width: 5px;
      }

      .cls-15 {
        fill: url(#linear-gradient-19);
      }

      .cls-16 {
        fill: url(#linear-gradient-10);
      }

      .cls-17 {
        fill: url(#linear-gradient-20);
      }

      .cls-18 {
        fill: url(#linear-gradient-12);
      }

      .cls-19 {
        fill: url(#linear-gradient-4);
      }

      .cls-20 {
        fill: url(#linear-gradient-3);
      }

      .cls-21 {
        fill: url(#Gold_Dust-4);
      }

      .cls-22 {
        fill: url(#linear-gradient-22);
      }

      .cls-23 {
        fill: url(#linear-gradient-18);
      }

      .cls-24 {
        fill: url(#linear-gradient-7);
      }

      .cls-25 {
        fill: url(#linear-gradient-8);
      }

      .cls-26 {
        fill: url(#linear-gradient-13);
      }

      .cls-28 {
        fill: url(#linear-gradient-16);
      }

      .cls-29 {
        fill: url(#linear-gradient-2);
        stroke: #ed1c24;
      }

      .cls-29, .cls-31 {
        stroke-width: 4px;
      }

      .cls-34 {
        fill: #ed1c24;
      }

      .cls-30 {
        fill: url(#Gold_Dust-2);
      }

      .cls-31 {
        fill: url(#linear-gradient);
        stroke: red;
      }

      .cls-32 {
        fill: url(#linear-gradient-14);
      }

      .cls-33 {
        fill: url(#linear-gradient-17);
      }
    </style>
    <linearGradient id="linear-gradient" x1="-2573.48" y1="771.38" x2="-2094.25" y2="771.38" gradientTransform="translate(-1650.41) rotate(-180) scale(1 -1)" gradientUnits="userSpaceOnUse">
      <stop offset="0" stop-color="#666"/>
      <stop offset=".96" stop-color="#303030"/>
      <stop offset="1" stop-color="#000"/>
    </linearGradient>
    <linearGradient id="linear-gradient-2" x1="1087.06" y1="772.74" x2="1566.29" y2="772.74" gradientTransform="matrix(1,0,0,1,0,0)" xlink:href="#linear-gradient"/>
    <linearGradient id="linear-gradient-3" x1="1035.06" y1="705.1" x2="1353.61" y2="705.1" gradientUnits="userSpaceOnUse">
      <stop offset="0" stop-color="#454545"/>
      <stop offset=".96" stop-color="#303030"/>
      <stop offset="1" stop-color="#000"/>
    </linearGradient>
    <linearGradient id="linear-gradient-4" x1="-2918.98" y1="705.1" x2="-2600.43" y2="705.1" gradientTransform="translate(-1942.49) rotate(-180) scale(1 -1)" xlink:href="#linear-gradient-3"/>
    <linearGradient id="linear-gradient-5" x1="926.04" y1="663.86" x2="1087.71" y2="663.86" gradientUnits="userSpaceOnUse">
      <stop offset="0" stop-color="#b0b0b0"/>
      <stop offset=".96" stop-color="#c7c7c7"/>
      <stop offset=".96" stop-color="#303030"/>
    </linearGradient>
    <linearGradient id="linear-gradient-6" x1="962.42" y1="644.35" x2="985.65" y2="644.35" gradientUnits="userSpaceOnUse">
      <stop offset="0" stop-color="#b0b0b0"/>
      <stop offset="1" stop-color="#f2f2f2"/>
    </linearGradient>
    <linearGradient id="linear-gradient-7" x1="1016.71" y1="643.32" x2="1041.23" y2="643.32" gradientUnits="userSpaceOnUse">
      <stop offset="0" stop-color="#d6d6d6"/>
      <stop offset="1" stop-color="#bababa"/>
    </linearGradient>
    <linearGradient id="linear-gradient-8" x1="-3072.84" y1="774" x2="-3064.06" y2="774" gradientTransform="translate(-2108.68 45.93) rotate(177.59) scale(1 -1)" gradientUnits="userSpaceOnUse">
      <stop offset="0" stop-color="#e0e0e0"/>
      <stop offset="1" stop-color="#fafafa"/>
    </linearGradient>
    <linearGradient id="linear-gradient-9" x1="959.38" y1="604.4" x2="968.16" y2="604.4" gradientTransform="translate(71.72 45.93) rotate(2.41)" gradientUnits="userSpaceOnUse">
      <stop offset="0" stop-color="#e3e3e3"/>
      <stop offset="1" stop-color="#fff"/>
    </linearGradient>
    <linearGradient id="linear-gradient-10" x1="636.8" y1="1229.21" x2="985.18" y2="1229.21" xlink:href="#linear-gradient-3"/>
    <linearGradient id="linear-gradient-11" x1="1000" y1="1229.21" x2="1348.38" y2="1229.21" xlink:href="#linear-gradient-3"/>
    <linearGradient id="linear-gradient-12" x1="1007.1" y1="962.32" x2="1294.62" y2="962.32" gradientUnits="userSpaceOnUse">
      <stop offset="0" stop-color="#1c1c1c"/>
      <stop offset="1" stop-color="#000"/>
    </linearGradient>
    <linearGradient id="linear-gradient-13" x1="566.59" y1="956.19" x2="974.03" y2="956.19" xlink:href="#linear-gradient-3"/>
    <linearGradient id="linear-gradient-14" x1="1002.41" y1="779.33" x2="1167.38" y2="779.33" gradientUnits="userSpaceOnUse">
      <stop offset="0" stop-color="#815a00"/>
      <stop offset="1" stop-color="#5c4000"/>
    </linearGradient>
    <linearGradient id="linear-gradient-15" x1="841.89" y1="777.33" x2="1002.93" y2="777.33" xlink:href="#linear-gradient-14"/>
    <linearGradient id="linear-gradient-16" x1="898.84" y1="726.7" x2="1104.36" y2="726.7" xlink:href="#linear-gradient-14"/>
    <linearGradient id="linear-gradient-17" x1="923.07" y1="710.16" x2="1080.2" y2="710.16" xlink:href="#linear-gradient-14"/>
    <linearGradient id="linear-gradient-18" x1="914.45" y1="724.33" x2="1079.38" y2="724.33" xlink:href="#linear-gradient-14"/>
    <linearGradient id="linear-gradient-19" x1="912.4" y1="738.25" x2="1074.04" y2="738.25" xlink:href="#linear-gradient-14"/>
    <linearGradient id="linear-gradient-20" x1="848.21" y1="1322.37" x2="1163.61" y2="1322.37" gradientUnits="userSpaceOnUse">
      <stop offset="0" stop-color="#a12512"/>
      <stop offset="1" stop-color="#69180c"/>
    </linearGradient>
    <linearGradient id="linear-gradient-21" x1="852.08" y1="1135.78" x2="1136.23" y2="1135.78" xlink:href="#linear-gradient-12"/>
    <linearGradient id="Gold_Dust" data-name="Gold Dust" x1="954.53" y1="1143.11" x2="1028.3" y2="1143.11" gradientUnits="userSpaceOnUse">
      <stop offset="0" stop-color="#ff7300"/>
      <stop offset=".18" stop-color="#f97c00"/>
      <stop offset=".47" stop-color="#ea9502"/>
      <stop offset=".55" stop-color="#e59e03"/>
      <stop offset=".87" stop-color="#e5c500"/>
      <stop offset=".99" stop-color="#bf6f00"/>
    </linearGradient>
    <linearGradient id="linear-gradient-22" x1="1089.66" y1="1479.86" x2="1237.55" y2="1479.86" xlink:href="#linear-gradient-12"/>
    <linearGradient id="linear-gradient-23" x1="-3097.36" y1="1492.54" x2="-2949.47" y2="1492.54" gradientTransform="translate(-2161.68) rotate(-180) scale(1 -1)" xlink:href="#linear-gradient-12"/>
    <linearGradient id="Gold_Dust-2" data-name="Gold Dust" x1="505.68" y1="801.71" x2="659.7" y2="801.71" xlink:href="#Gold_Dust"/>
    <linearGradient id="Gold_Dust-3" data-name="Gold Dust" x1="575.26" y1="863.97" x2="657.45" y2="863.97" xlink:href="#Gold_Dust"/>
    <linearGradient id="Gold_Dust-4" data-name="Gold Dust" x1="810.49" y1="989.29" x2="898.08" y2="989.29" xlink:href="#Gold_Dust"/>
  </defs>
  <g id="Wings">
    <path class="cls-34" d="M959.92,839.09c18.31-10.11,22.97-53.05,6.19-75.87-23.62-32.13-68.62,4.35-131.61-21.68-79.22-32.72-140.86-145.27-148.65-159.48-4.83-8.82-16.65-31.35-23.23-29.42-7.97,2.33-3.44,39.13-3.1,41.81,4.03,31.54,17.66,66.69,51.1,108.39,45.61,56.88,103.18,82.3,218.32,133.16,7.14,3.16,20.54,8.86,30.97,3.1Z"/>
    <path class="cls-34" d="M1051.63,839.45c-18.31-10.11-22.97-53.05-6.19-75.87,23.62-32.13,68.62,4.35,131.61-21.68,79.22-32.72,140.86-145.27,148.65-159.48,4.83-8.82,16.65-31.35,23.23-29.42,7.97,2.33,3.44,39.13,3.1,41.81-4.03,31.54-17.66,66.69-51.1,108.39-45.61,56.88-103.18,82.3-218.32,133.16-7.14,3.16-20.54,8.86-30.97,3.1Z"/>
    <path class="cls-31" d="M664.49,567.77c-73.55,2.84-147.1,5.68-220.65,8.52,77.61,25.56,115.55,47.24,113.81,65.03-1.19,12.13-20.8,22.45-58.84,30.97,99.42,2.03,163.5,44.27,164.9,82.84,1.12,30.75-37.7,56.74-52.65,65.81,65.03-31.84,140.18-19.81,184.26,27.1,47.12,50.15,37.79,117.87,36.39,126.97,30.45-56.26,60.9-112.52,91.35-168.77-38.59-16.14-97.14-46.14-154.84-100.65-53.13-50.19-85.21-101.96-103.74-137.81Z"/>
    <path class="cls-29" d="M1345.65,569.13c73.55,2.84,147.1,5.68,220.65,8.52-77.61,25.56-115.55,47.24-113.81,65.03,1.19,12.13,20.8,22.45,58.84,30.97-99.42,2.03-163.5,44.27-164.9,82.84-1.12,30.75,37.7,56.74,52.65,65.81-65.03-31.84-140.18-19.81-184.26,27.1-47.12,50.15-37.79,117.87-36.39,126.97-30.45-56.26-60.9-112.52-91.35-168.77,38.59-16.14,97.14-46.14,154.84-100.65,53.13-50.19,85.21-101.96,103.74-137.81Z"/>
    <path class="cls-20" d="M1051.63,847.14c-18.31-10.11-22.97-53.05-6.19-75.87,23.62-32.13,68.62,4.35,131.61-21.68,79.22-32.72,140.86-145.27,148.65-159.48,4.83-8.82,16.65-31.35,23.23-29.42,7.97,2.33,3.44,39.13,3.1,41.81-4.03,31.54-17.66,66.69-51.1,108.39-45.61,56.88-103.18,82.3-218.32,133.16-7.14,3.16-20.54,8.86-30.97,3.1Z"/>
    <path class="cls-19" d="M959.92,847.14c18.31-10.11,22.97-53.05,6.19-75.87-23.62-32.13-68.62,4.35-131.61-21.68-79.22-32.72-140.86-145.27-148.65-159.48-4.83-8.82-16.65-31.35-23.23-29.42-7.97,2.33-3.44,39.13-3.1,41.81,4.03,31.54,17.66,66.69,51.1,108.39,45.61,56.88,103.18,82.3,218.32,133.16,7.14,3.16,20.54,8.86,30.97,3.1Z"/>
  </g>
  <g id="Head">
    <path class="cls-34" d="M965.22,586.9c-14.25,12.22-7.23,27.02-18.5,67.82-13.05,47.26-30.02,54.75-24.66,69.05,14.65,39.11,160.43,33.72,170.17-1.23,4.71-16.92-26.47-26.32-40.69-75.22-8.57-29.47-1.95-42.21-14.8-55.49-17.06-17.63-53.31-20.55-71.52-4.93Z"/>
    <path class="cls-1" d="M967.65,591.39c-13.42,11.51-6.81,25.44-17.42,63.87-12.29,44.51-28.27,51.56-23.23,65.03,13.8,36.83,151.09,31.76,160.26-1.16,4.44-15.93-24.93-24.79-38.32-70.84-8.07-27.76-1.83-39.75-13.94-52.26-16.07-16.6-50.2-19.35-67.35-4.65Z"/>
    <circle class="cls-12" cx="974.03" cy="644.35" r="11.61"/>
    <circle class="cls-24" cx="1028.97" cy="643.32" r="12.26"/>
    <path class="cls-25" d="M993.7,683.67c-2.93-.05-5.86-.1-8.79-.15.54,4.63,1.08,9.25,1.62,13.88,2.39-4.58,4.78-9.16,7.17-13.73Z"/>
    <path class="cls-4" d="M1005.13,683.67c2.93-.05,5.86-.1,8.79-.15-.54,4.63-1.08,9.25-1.62,13.88-2.39-4.58-4.78-9.16-7.17-13.73Z"/>
  </g>
  <g id="Mid_Clothing">
    <path class="cls-6" d="M890.22,971.11c-20.52,120.64-40.22,149.95-22.22,171.11,15.46,18.18,36.86,4.65,131.11,8.89,83.7,3.77,104.79,16.15,120,0,19.13-20.3-1.51-53.35-15.56-146.67-11.29-75.01-20.78-137.98,6.67-155.56,24.91-15.96,74.36,9.28,100,40,36.13,43.29,38.63,113.77,13.33,160-14.41,26.34-33.62,37.08-28.89,53.33,5.55,19.09,40.29,32.51,62.22,22.22,14.55-6.82,23.25-23.97,28.89-73.33,11.43-99.98,17.29-151.24-17.78-202.22-43.23-62.85-116.75-78.89-142.22-84.44-23.03-5.02-55.35-4.83-120-4.44-57.93.35-86.89.52-108.89,6.67-50.23,14.04-89.65,43.67-115.21,62.89-43.62,32.79-43.14,43.82-62.57,46-46.58,5.24-70.7-55.72-115.56-46.67-18.58,3.75-36.52,18.66-36.96,32.91-.15,4.85,1.5,16.84,46,41.45,53.13,29.38,82.19,45.46,117.63,38.98,20.92-3.83,19.42-11,82.22-46.67,64.53-36.64,73.85-33.46,77.78-31.11,10.34,6.19,13.9,24.95,0,106.67Z"/>
    <g>
      <path class="cls-34" d="M899.36,757.34c-10.74-9.61-9.13-35.42,3.44-47.75,9.28-9.1,20.02-6.45,64.1-5.16,42.66,1.24,63.97,1.75,83.31-.23,33.31-3.42,43.16-9.71,50.92-2.35,12.39,11.75,6.58,46.1-10.56,55.34-8.89,4.79-15.79.1-37.2-4.57,0,0-37.89-9.08-86.04-4.3-42.53,4.22-57.17,18.71-67.97,9.03Z"/>
      <path class="cls-34" d="M917.65,711.3c25.72,1.75,53.33,2.74,82.6,2.58,29.12-.16,56.58-1.43,82.17-3.44"/>
      <path class="cls-34" d="M908.61,726.36c28.46,1.57,58.63,2.39,90.35,2.15,28.88-.22,56.46-1.3,82.6-3.01"/>
      <path class="cls-34" d="M906.46,744.43c25.41-3.71,55.25-6.33,88.62-6.02,30.19.28,57.37,2.9,80.88,6.45"/>
    </g>
    <path class="cls-34" d="M994.15,997.67c.08,46.35.15,92.69.23,139.04,72.18,31.08,100.43,26.39,112.3,14.75,18.39-18.02-1.73-53.36-15.63-142.9-11.35-73.09-20.87-134.43,6.7-151.56,25.03-15.55,74.7,9.04,100.46,38.97,36.3,42.17,38.8,110.84,13.39,155.89-14.48,25.66-33.77,36.13-29.02,51.96,5.58,18.6,40.47,31.67,62.51,21.65,14.61-6.65,23.35-23.35,29.02-71.45,11.48-97.41,17.37-147.36-17.86-197.02-2.46-3.47-58.71-83.37-142.88-82.27-6.92.09-17.87.23-29.3,3.81-56.37,17.64-88.81,107.71-89.93,219.12Z"/>
    <path class="cls-34" d="M881,981.24c-7.76,45.16-19.42,105.41-37.06,176.54,39.49-1.88,78.99-3.76,118.48-5.65-1-72.21-2.01-144.43-3.01-216.64-13-41.16-26-82.33-39-123.49-.13-4.82-1.12-19.85-11.9-29.4-7.76-6.88-16.91-7.66-21.03-7.95-31.52-2.25-70.2,30.92-111.93,63.55-42.38,33.14-41.91,44.28-60.78,46.49-45.25,5.29-68.69-56.31-112.26-47.16-18.05,3.79-35.48,18.86-35.91,33.25-.15,4.9,1.46,17.02,44.69,41.89,51.61,29.69,79.85,45.94,114.28,39.39,20.32-3.87,18.86-11.12,79.88-47.16,62.69-37.03,71.75-33.81,75.56-31.44,13.99,8.71,11.74,39.46,0,107.79Z"/>
    <path class="cls-34" d="M888.34,1071.22c-36.45,18.05-26.63,46.59-54.49,105.68-8.75,18.57-46.42,98.48-133.95,151.5-41.43,25.09-75.7,33.07-72.65,42.81,3.3,10.53,46.22,10.43,129.41,9.81,69.57-.52,104.72-.95,122.6-9.81,10.24-5.07,21.76-12.99,66.97-121.29,17.99-43.1-2.54,2.95,38.59-133.78,4.83-16.05,9.73-32.05-1.39-43.28-16.96-17.14-64.72-16.69-95.1-1.64Z"/>
    <path class="cls-16" d="M887.47,1091.77c-34.97,16.61-25.55,42.86-52.28,97.23-8.4,17.09-44.54,90.61-128.51,139.38-39.74,23.09-72.63,30.42-69.7,39.38,3.17,9.69,44.34,9.59,124.16,9.03,66.74-.47,100.47-.88,117.62-9.03,9.82-4.67,20.88-11.95,64.26-111.59,17.26-39.66-2.43,2.72,37.03-123.08,4.63-14.77,9.34-29.48-1.33-39.82-16.27-15.77-62.1-15.35-91.24-1.51Z"/>
    <path class="cls-34" d="M1096.66,1080.82c37.75,17.61,27.58,45.47,56.42,103.14,9.06,18.13,48.06,96.12,138.69,147.86,42.89,24.49,78.39,32.27,75.22,41.78-3.42,10.28-47.86,10.18-133.99,9.57-72.03-.5-108.43-.93-126.94-9.57-10.6-4.95-22.53-12.67-69.35-118.37-18.63-42.07,2.63,2.88-39.96-130.56-5-15.67-10.08-31.27,1.44-42.24,17.56-16.72,67.01-16.28,98.47-1.61Z"/>
    <path class="cls-9" d="M1097.71,1091.77c34.97,16.61,25.55,42.86,52.28,97.23,8.4,17.09,44.54,90.61,128.51,139.38,39.74,23.09,72.63,30.42,69.7,39.38-3.17,9.69-44.34,9.59-124.16,9.03-66.74-.47-100.47-.88-117.62-9.03-9.82-4.67-20.88-11.95-64.26-111.59-17.26-39.66,2.43,2.72-37.03-123.08-4.63-14.77-9.34-29.48,1.33-39.82,16.27-15.77,62.1-15.35,91.24-1.51Z"/>
    <g>
      <path class="cls-6" d="M933.43,772.4c-7.65-6.85-6.5-25.22,2.45-34.01,6.61-6.48,14.26-4.59,45.65-3.68,30.38.89,45.56,1.25,59.33-.17,23.72-2.44,30.74-6.92,36.27-1.67,8.83,8.37,4.68,32.83-7.52,39.41-6.33,3.41-11.24.07-26.49-3.25,0,0-26.98-6.47-61.28-3.06-30.29,3.01-40.71,13.32-48.41,6.43Z"/>
      <path class="cls-6" d="M946.45,739.61c18.32,1.25,37.98,1.95,58.83,1.84,20.74-.11,40.3-1.02,58.52-2.45"/>
      <path class="cls-6" d="M940.02,750.34c20.27,1.12,41.76,1.71,64.34,1.53,20.57-.16,40.21-.93,58.83-2.14"/>
      <path class="cls-6" d="M938.48,763.21c18.1-2.64,39.35-4.51,63.12-4.29,21.5.2,40.86,2.07,57.6,4.6"/>
    </g>
    <path class="cls-6" d="M890.22,971.11c-20.52,120.64-40.22,149.95-22.22,171.11,15.46,18.18,36.86,4.65,131.11,8.89,83.7,3.77,104.79,16.15,120,0,19.13-20.3-1.51-53.35-15.56-146.67-11.29-75.01-20.78-137.98,6.67-155.56,24.91-15.96,74.36,9.28,100,40,36.13,43.29,38.63,113.77,13.33,160-14.41,26.34-33.62,37.08-28.89,53.33,5.55,19.09,40.29,32.51,62.22,22.22,14.55-6.82,23.25-23.97,28.89-73.33,11.43-99.98,17.29-151.24-17.78-202.22-43.23-62.85-116.75-78.89-142.22-84.44-23.03-5.02-55.35-4.83-120-4.44-57.93.35-86.89.52-108.89,6.67-50.23,14.04-89.65,43.67-115.21,62.89-43.62,32.79-43.14,43.82-62.57,46-46.58,5.24-70.7-55.72-115.56-46.67-18.58,3.75-36.52,18.66-36.96,32.91-.15,4.85,1.5,16.84,46,41.45,53.13,29.38,82.19,45.46,117.63,38.98,20.92-3.83,19.42-11,82.22-46.67,64.53-36.64,73.85-33.46,77.78-31.11,10.34,6.19,13.9,24.95,0,106.67Z"/>
    <path class="cls-34" d="M1009.52,993.38c.08,47.57.15,95.14.23,142.71,72.33,31.9,100.65,27.08,112.54,15.14,18.43-18.5-1.73-54.77-15.66-146.67-11.37-75.01-20.92-137.98,6.71-155.56,25.08-15.96,74.86,9.28,100.68,40,36.38,43.29,38.89,113.77,13.42,160-14.51,26.34-33.84,37.08-29.08,53.33,5.59,19.09,40.56,32.51,62.64,22.22,14.65-6.82,23.4-23.97,29.08-73.33,11.51-99.98,17.4-151.24-17.9-202.22-2.46-3.56-58.84-85.57-143.18-84.44-6.93.09-17.91.24-29.36,3.91-56.49,18.11-89.01,110.55-90.12,224.9Z"/>
    <path class="cls-18" d="M1007.1,993.26c.08,47.57.15,95.14.23,142.71,71.85,31.9,99.97,27.08,111.79,15.14,18.3-18.5-1.72-54.77-15.56-146.67-11.29-75.01-20.78-137.98,6.67-155.56,24.91-15.96,74.36,9.28,100,40,36.13,43.29,38.63,113.77,13.33,160-14.41,26.34-33.62,37.08-28.89,53.33,5.55,19.09,40.29,32.51,62.22,22.22,14.55-6.82,23.25-23.97,28.89-73.33,11.43-99.98,17.29-151.24-17.78-202.22-2.45-3.56-58.45-85.57-142.22-84.44-6.89.09-17.79.24-29.16,3.91-56.12,18.11-88.41,110.55-89.52,224.9Z"/>
    <path class="cls-34" d="M886.8,966.16c-7.76,45.16-19.42,105.41-37.06,176.54,39.49-1.88,78.99-3.76,118.48-5.65-1-72.21-2.01-144.43-3.01-216.64-13-41.16-26-82.33-39-123.49-.13-4.82-1.12-19.85-11.9-29.4-7.76-6.88-16.91-7.66-21.03-7.95-31.52-2.25-70.2,30.92-111.93,63.55-42.38,33.14-41.91,44.28-60.78,46.49-45.25,5.29-68.69-56.31-112.26-47.16-18.05,3.79-35.48,18.86-35.91,33.25-.15,4.9,1.46,17.02,44.69,41.89,51.61,29.69,79.85,45.94,114.28,39.39,20.32-3.87,18.86-11.12,79.88-47.16,62.69-37.03,71.75-33.81,75.56-31.44,13.99,8.71,11.74,39.46,0,107.79Z"/>
    <path class="cls-26" d="M890.22,971.11c-7.99,44.69-19.99,104.31-38.14,174.7,40.65-1.86,81.3-3.72,121.95-5.59-1.03-71.46-2.06-142.92-3.1-214.39-13.38-40.73-26.76-81.47-40.15-122.2-.13-4.77-1.15-19.64-12.25-29.1-7.99-6.8-17.41-7.58-21.65-7.87-32.45-2.23-72.26,30.59-115.21,62.89-43.62,32.79-43.14,43.82-62.57,46-46.58,5.24-70.7-55.72-115.56-46.67-18.58,3.75-36.52,18.66-36.96,32.91-.15,4.85,1.5,16.84,46,41.45,53.13,29.38,82.19,45.46,117.63,38.98,20.92-3.83,19.42-11,82.22-46.67,64.53-36.64,73.85-33.46,77.78-31.11,14.4,8.62,12.08,39.05,0,106.67Z"/>
    <path class="cls-2" d="M974.67,1150.35c-.57-25.86-1.35-65.02-1.92-112.9-1.09-90.68,0-92-2.52-109.06,0,0-4.67-31.63-51.69-153.85h0"/>
    <path class="cls-2" d="M1010.93,1151.72c-3.9-46.6-4.75-87.35-4.39-120.57.73-66.27,1.41-104.96,14.77-152.62,12.34-44.04,30.97-79.53,48.3-106.25"/>
    <g>
      <path class="cls-32" d="M1002.41,728.18c32.93,80.72,53.11,105.37,63.04,102,8.24-2.79,8.85-24.87,21.78-26.67,8.73-1.21,15.15,7.99,20.88,4.4,6.57-4.12,1.31-18.47,6.67-21.27,5.32-2.78,15.34,14.5,22.21,13,7.83-1.71,1.59-24.5,8.76-25.17,4.67-.44,10.17,8.76,16.42,8.19,3.27-.3,5.99-3.26,5.02-6.25-1.81-5.58-16.37-10.37-38.78-18.44-46.97-16.92-39.49-16.2-53.86-20.19-16.13-4.49-40.4-9.54-72.14-9.59Z"/>
      <path class="cls-6" d="M1030.99,742.28c13.97,18.54,29.06,38.56,45.41,60.25"/>
      <path class="cls-6" d="M1051.77,742.89c17.05,12.8,34.79,26.12,53.28,39.99"/>
      <path class="cls-6" d="M1078.49,744.27c18.72,7.87,37.6,15.81,56.66,23.82"/>
    </g>
    <g>
      <path class="cls-5" d="M1002.93,728.18c-22.34,75.87-38.04,100.12-47.26,98.19-7.84-1.64-10.5-22.24-23.08-22.8-8.72-.39-14.13,9.18-20.35,6.26-7.27-3.42-3.54-18.2-9.49-20.61-6-2.43-14.52,16.02-22.24,15.16-8.98-1-5.25-25.35-13.51-25.59-5.48-.16-10.47,10.1-17.95,9.98-3.97-.06-7.76-3.07-7.09-6.4,1.26-6.23,17.87-12.33,42.27-22.06,47.48-18.94,40-18.07,53.97-22.36,15.17-4.66,37.18-9.72,64.73-9.78Z"/>
      <path class="cls-6" d="M979.32,741.8c-11.02,18.13-23.1,38-36.4,59.87"/>
      <path class="cls-6" d="M934.98,744.6c-18.06,8.5-36.99,17.42-56.87,26.77"/>
    </g>
    <path class="cls-6" d="M954.34,742.05c-16.63,13.34-33.94,27.22-51.96,41.68"/>
    <g>
      <path class="cls-28" d="M905.63,753.23c-10.24-9.17-8.71-33.77,3.28-45.54,8.85-8.68,19.09-6.15,61.13-4.92,40.68,1.19,61,1.67,79.44-.22,31.76-3.26,41.16-9.26,48.56-2.24,11.82,11.21,6.27,43.96-10.07,52.77-8.48,4.57-15.05.1-35.47-4.36,0,0-36.13-8.66-82.05-4.1-40.55,4.03-54.52,17.84-64.82,8.62Z"/>
      <path class="cls-33" d="M923.07,709.34c24.53,1.67,50.85,2.61,78.77,2.46,27.77-.15,53.96-1.37,78.36-3.28"/>
      <path class="cls-23" d="M914.45,723.69c27.14,1.5,55.91,2.28,86.15,2.05,27.54-.21,53.84-1.24,78.77-2.87"/>
      <path class="cls-15" d="M912.4,740.93c24.23-3.54,52.69-6.04,84.51-5.74,28.79.27,54.71,2.77,77.13,6.15"/>
    </g>
  </g>
  <g id="Legs">
    <path class="cls-34" d="M847.2,1140.22c-1.72,18.33-3.68,45.14-3.98,77.57-.19,21.35,1.16,21.81,1.89,55.11.98,44.45-.64,52.35,1.31,79.88,1.28,18.01,2.71,25.13,6.39,52.72,3.1,23.22,7.25,56.97,11.18,99.04,19.44-2.26,38.87-4.53,58.31-6.79-4.42-41.8-7.1-77.74-8.79-106.23-1.49-25.18-2.26-45.24,2.4-71.09,4.02-22.33,7.34-39.53,20.77-56.45,4.58-5.77,24.19-30.46,58.3-33.01,34.43-2.58,57.76,19.33,62.97,24.55,7.81,7.82,12.77,16.07,23.29,43.35,18.05,46.81,27.07,70.22,29.55,97.45,1.75,19.18,2.06,49.88-8.79,87.06,19.7.8,39.4,1.6,59.11,2.4,2.98-21.09,6.21-50.38,7.19-85.47,1.62-58.12-3.79-102.52-8.39-138.98-3.69-29.31-9.61-67.2-19.57-111.11-97.72-3.33-195.44-6.66-293.16-9.99Z"/>
    <path class="cls-34" d="M858.14,1154.94c-1.61,17.59-3.44,43.31-3.72,74.44-.18,20.49,1.08,20.93,1.76,52.88.91,42.65-.6,50.24,1.22,76.65,1.19,17.28,2.54,24.12,5.97,50.59,2.89,22.28,6.78,54.67,10.45,95.04,18.16-2.17,36.33-4.34,54.49-6.51-4.13-40.11-6.63-74.59-8.21-101.94-1.4-24.16-2.11-43.41,2.24-68.22,3.76-21.42,6.86-37.93,19.41-54.17,4.28-5.53,22.6-29.23,54.49-31.68,32.18-2.47,53.98,18.55,58.85,23.56,7.3,7.5,11.94,15.42,21.77,41.59,16.87,44.92,25.3,67.38,27.62,93.51,1.63,18.41,1.92,47.86-8.21,83.54,18.41.77,36.83,1.53,55.24,2.3,2.78-20.24,5.81-48.35,6.72-82.01,1.51-55.77-3.55-98.37-7.84-133.37-3.45-28.12-8.98-64.48-18.29-106.62-91.33-3.19-182.66-6.39-273.99-9.58Z"/>
    <path class="cls-17" d="M852.08,1145.81c-1.67,17.77-3.57,43.75-3.85,75.19-.19,20.69,1.12,21.14,1.83,53.41.95,43.08-.62,50.75,1.27,77.43,1.24,17.46,2.63,24.36,6.19,51.1,3,22.51,7.03,55.22,10.84,96,18.84-2.19,37.68-4.39,56.52-6.58-4.29-40.52-6.88-75.35-8.52-102.97-1.45-24.4-2.19-43.85,2.32-68.9,3.9-21.64,7.11-38.32,20.13-54.72,4.44-5.59,23.44-29.52,56.51-31.99,33.37-2.5,55.99,18.74,61.04,23.79,7.57,7.58,12.38,15.57,22.58,42.01,17.49,45.37,26.24,68.06,28.65,94.45,1.69,18.59,1.99,48.35-8.52,84.39,19.1.77,38.19,1.55,57.29,2.32,2.89-20.44,6.02-48.84,6.97-82.84,1.57-56.33-3.68-99.37-8.13-134.71-3.58-28.41-9.32-65.13-18.96-107.7-94.72-3.23-189.43-6.45-284.15-9.68Z"/>
    <path class="cls-8" d="M861.95,1108.83c-3.29,12.33-6.58,24.66-9.87,36.99,39.74,7.91,87.15,14.5,140.78,16.38,54.39,1.91,102.77-1.45,143.37-6.7-3.86-15.27-7.72-30.55-11.58-45.82-35.6,7.53-81.14,13.92-134.1,13.52-50.55-.38-94.14-6.85-128.6-14.37Z"/>
    <path class="cls-3" d="M966.03,1147.71c-5.15-7.77-9.62-7.62-11.1-13.68-1.84-7.55,2.76-17.35,9.81-20.65,6.09-2.84,9.05,1.49,20.01,1.53,15.25.06,18.72-8.29,27.99-5.66,9.41,2.67,17.3,14.55,15.23,22.71-2.12,8.33-13.31,7.59-16.52,17.29-2.84,8.59,4.53,13.46,1.55,19.61-4.68,9.67-29.95,12.3-38.97,2.06-5.45-6.19-.89-12.49-8-23.23Z"/>
    <path class="cls-6" d="M975.58,1129.9c-.76,2.45-1.59,6.01-1.55,10.32.08,8.03,3.13,14.87,3.87,14.71.62-.13-.61-5-.26-13.42.19-4.69.8-8.53,1.29-11.1-1.12-.17-2.24-.34-3.35-.52Z"/>
    <path class="cls-6" d="M1003.35,1129.9c.76,2.45,1.59,6.01,1.55,10.32-.08,8.03-3.13,14.87-3.87,14.71-.62-.13.61-5,.26-13.42-.19-4.69-.8-8.53-1.29-11.1,1.12-.17,2.24-.34,3.35-.52Z"/>
    <path class="cls-34" d="M1161.55,1458.73c9.38,1.93,7.06,8.48,20.31,15.7,16.71,9.11,26.37,1.95,47.4,10.75,1.96.82,20.18,8.44,19.47,13.22-.88,5.88-30.71,10.04-161.66,1.65,4.89-33.06,10.05-41.94,14.39-42.15,5.09-.25,5.85,11.57,15.23,14.88,14.42,5.08,27.02-17.73,44.86-14.05Z"/>
    <path class="cls-22" d="M1157.79,1458.68c8.58,1.81,6.46,7.94,18.58,14.71,15.28,8.53,24.12,1.83,43.35,10.06,1.79.77,18.46,7.91,17.81,12.39-.81,5.5-28.09,9.41-147.87,1.55,4.47-30.97,9.19-39.29,13.16-39.48,4.65-.23,5.35,10.84,13.94,13.94,13.19,4.76,24.71-16.6,41.03-13.16Z"/>
    <path class="cls-34" d="M864.56,1469.92c-9.34,1.93-7.03,8.48-20.21,15.7-16.63,9.11-26.24,1.95-47.16,10.75-1.95.82-20.08,8.44-19.37,13.22.88,5.88,30.56,10.04,160.86,1.65-4.87-33.06-10-41.94-14.32-42.15-5.06-.25-5.82,11.57-15.16,14.88-14.35,5.08-26.88-17.73-44.64-14.05Z"/>
    <path class="cls-7" d="M867.56,1471.36c-8.58,1.81-6.46,7.94-18.58,14.71-15.28,8.53-24.12,1.83-43.35,10.06-1.79.77-18.46,7.91-17.81,12.39.81,5.5,28.09,9.41,147.87,1.55-4.47-30.97-9.19-39.29-13.16-39.48-4.65-.23-5.35,10.84-13.94,13.94-13.19,4.76-24.71-16.6-41.03-13.16Z"/>
  </g>
  <g id="Arms">
    <path class="cls-34" d="M654.37,845.32c-8.13-4.43-12.93-13.08-12.14-21.69.99-10.74,10.53-19.76,22.46-20.07-4.64-3.19-11.32-6.57-18.98-5.83-7.7.75-9.24,4.97-15.23,5.69-12.71,1.54-28.01-14.76-32.8-31.33-3.12-10.78-1.36-20.22.4-29.68,2.11-11.31,5.91-20.15,8.91-25.97-4.14,1.76-12.57,6.03-19.03,15.25-7.17,10.22-7.83,20.7-8.1,25.97-1.2,23.71,12.03,39.23,10.12,40.4-2.02,1.23-19.24-14.57-19.03-33.8.05-4.3,1.38-9.32,4.05-19.37,2.5-9.41,5.03-17.04,6.88-22.26-4.68,2.83-14.75,9.86-20.65,23.08-7.82,17.52-3.08,34.16-1.21,39.57,4.81,13.97,13.61,20.23,12.15,21.85-1.77,1.97-17.01-4.78-24.3-18.55-7-13.23-3.67-27.31-2.43-32.57,2.45-10.38,7.35-17.77,10.53-21.85-3.24,1.63-18.31,9.61-23.08,26.79-3.51,12.64.39,23.62,2.02,28.03,6.64,17.93,20.39,24.34,18.63,27.21-1.89,3.07-18.78-2.39-30.77-13.6-7.4-6.92-8.97-12.34-9.31-13.6-2.6-9.69,1.85-18.18,3.24-20.61-5.23,5.7-13.34,16.43-13.12,29.99.16,10.09,7.32,19.96,21.63,39.27,11.42,15.42,17.34,23.3,27.54,31.74,10.69,8.85,20.97,14.29,28.39,17.59,24.41-13.89,48.82-27.77,73.24-41.66Z"/>
    <path class="cls-30" d="M649.83,842.66c-7.77-4.16-12.36-12.28-11.6-20.37.95-10.09,10.06-18.56,21.47-18.84-4.44-3-10.82-6.17-18.14-5.47-7.36.7-8.83,4.66-14.56,5.35-12.15,1.45-26.78-13.86-31.35-29.42-2.98-10.12-1.3-18.99.39-27.87,2.01-10.62,5.65-18.92,8.52-24.39-3.95,1.65-12.01,5.66-18.19,14.32-6.85,9.6-7.49,19.44-7.74,24.39-1.15,22.26,11.5,36.84,9.68,37.94-1.93,1.16-18.4-13.69-18.19-31.74.05-4.03,1.32-8.75,3.87-18.19,2.39-8.83,4.81-16,6.58-20.9-4.47,2.65-14.1,9.25-19.74,21.68-7.47,16.45-2.95,32.07-1.16,37.16,4.6,13.12,13.01,19,11.61,20.52-1.7,1.85-16.26-4.49-23.23-17.42-6.69-12.42-3.51-25.64-2.32-30.58,2.34-9.75,7.02-16.68,10.06-20.52-3.1,1.53-17.5,9.03-22.06,25.16-3.36,11.87.37,22.18,1.94,26.32,6.35,16.84,19.49,22.86,17.81,25.55-1.81,2.88-17.96-2.24-29.42-12.77-7.08-6.5-8.58-11.58-8.9-12.77-2.49-9.1,1.77-17.08,3.1-19.35-5,5.35-12.75,15.43-12.54,28.16.16,9.48,7,18.74,20.67,36.87,10.92,14.48,16.58,21.88,26.32,29.81,10.22,8.31,20.05,13.42,27.14,16.52,23.34-13.04,46.67-26.08,70.01-39.12Z"/>
    <path class="cls-10" d="M602.37,723.79c-5.11,5.7-14.39,17.8-15.95,34.73-.53,5.81-.53,16.26,9.82,38.4,6.36,13.6,17.41,33.26,36.56,54.02"/>
    <path class="cls-10" d="M578.71,729.51c-12.11,13.07-15,24.32-15.39,32.13-.85,17.31,10.14,28,29.71,59.2,10.15,16.19,17.82,30.26,23.13,40.55"/>
    <path class="cls-10" d="M552.69,740.9c-13.3,16.24-14.67,28.36-13.9,35.95,1.94,19.14,19.33,27.77,45.15,59.37,10.76,13.18,18.35,24.67,22.74,31.68"/>
    <path class="cls-10" d="M656.3,802.69c-.93-.28-12.69-3.63-21.1,3.73-9.23,8.07-5.99,21.68-5.08,24.87,2.71,9.52,9.76,14.69,12.1,16.26"/>
    <path class="cls-10" d="M514.4,776.47c-1.79,4.94-2.62,9.6-2.81,13.94-2.06,49.04,77.92,84.79,84.34,87.58"/>
    <path class="cls-14" d="M642.29,891.97c-10.44-8.53-18.72-16.1-24.39-21.48,6.92-4.39,13.85-8.77,20.77-13.16,5.32,6.91,14.4,16.9,28.26,24.77,31.45,17.86,64.24,11.58,72.52,9.87,50.58-10.45,60.02-48.49,88.65-46.45,15.69,1.12,37.27,14.36,60.58,71.61-11.03-3.1-22.06-6.19-33.1-9.29-3.29-12.79-9.58-29.46-22.26-33.18-17.37-5.09-29.44,19.19-66.96,36.47-13.67,6.29-51.68,23.79-84.19,9.48-10.44-4.59-20.25-12.61-39.87-28.65Z"/>
    <path class="cls-11" d="M619.9,854.61c-15.01,9.35-29.9,18.43-44.65,27.23,4,2.84,8,5.68,12,8.52,11.42-6.03,23.6-13.07,36.26-21.29,12.55-8.15,23.85-16.35,33.94-24.26-3.53-2.41-7.05-4.82-10.58-7.23-8.88,5.68-17.86,11.36-26.97,17.03Z"/>
    <path class="cls-27" d="M647.13,840.19c-21.53,13.66-43.06,27.32-64.6,40.98,2.29,1.77,4.58,3.55,6.87,5.32,9.54-6.2,19.08-12.39,28.62-18.59,11.64-7.56,23.28-15.12,34.92-22.68-1.94-1.68-3.87-3.35-5.81-5.03Z"/>
    <path class="cls-34" d="M820.59,976.2c.82-39.21-11.31-55.59-1.49-67.85,6.77-8.46,23.45-14.27,69.58,3.81-7.26,55.27-14.51,110.54-21.77,165.8-40.73,8.29-54.47.09-59.76-8.27-11.12-17.58,12.34-40.25,13.45-93.5Z"/>
    <path class="cls-21" d="M827.52,975.58c.85-36.69-11.72-52.02-1.55-63.48,7.02-7.92,24.31-13.36,72.11,3.57-7.52,51.71-15.04,103.43-22.56,155.14-42.21,7.76-56.45.08-61.94-7.74-11.52-16.45,12.79-37.66,13.94-87.48Z"/>
    <path class="cls-13" d="M849.19,935.32c2.17,12.69,3.85,30.82,1.16,52.26-2.85,22.66-9.53,40.62-15.1,52.65,11.87,1.03,23.74,2.06,35.61,3.1-2.79-14.58-5-33.28-4.26-54.97.66-19.05,3.43-35.55,6.58-48.77-8-1.42-16-2.84-24-4.26Z"/>
  </g>
</svg>