<?xml version="1.0" encoding="UTF-8"?>
<svg id="Arms" xmlns="http://www.w3.org/2000/svg" xmlns:xlink="http://www.w3.org/1999/xlink" viewBox="0 0 2000 2000">
  <defs>
    <style>
      .cls-1 {
        fill: url(#linear-gradient);
      }

      .cls-1, .cls-2, .cls-3, .cls-4, .cls-5, .cls-6, .cls-7 {
        stroke-miterlimit: 10;
      }

      .cls-1, .cls-3, .cls-4, .cls-5, .cls-6, .cls-7 {
        stroke: #000;
      }

      .cls-2 {
        fill: none;
        stroke: #c1272d;
      }

      .cls-3, .cls-4, .cls-7 {
        fill: #c1272d;
      }

      .cls-3, .cls-5 {
        stroke-width: 3px;
      }

      .cls-4 {
        stroke-width: 5px;
      }

      .cls-5 {
        fill: url(#linear-gradient-3);
      }

      .cls-6 {
        fill: url(#linear-gradient-2);
      }
    </style>
    <linearGradient id="linear-gradient" x1="505.72" y1="1198.27" x2="659.7" y2="1198.27" gradientTransform="translate(-400.26 195.95) rotate(90) scale(1 -1)" gradientUnits="userSpaceOnUse">
      <stop offset="0" stop-color="#ff7300"/>
      <stop offset=".18" stop-color="#f97c00"/>
      <stop offset=".47" stop-color="#ea9502"/>
      <stop offset=".55" stop-color="#e59e03"/>
      <stop offset=".87" stop-color="#e5c500"/>
      <stop offset=".99" stop-color="#bf6f00"/>
    </linearGradient>
    <linearGradient id="linear-gradient-2" x1="575.25" y1="1136.03" x2="657.45" y2="1136.03" gradientTransform="translate(-400.26 195.95) rotate(90) scale(1 -1)" gradientUnits="userSpaceOnUse">
      <stop offset="0" stop-color="#ff7300"/>
      <stop offset=".18" stop-color="#f97c00"/>
      <stop offset=".47" stop-color="#ea9502"/>
      <stop offset=".55" stop-color="#e59e03"/>
      <stop offset=".87" stop-color="#e5c500"/>
      <stop offset=".99" stop-color="#bf6f00"/>
    </linearGradient>
    <linearGradient id="linear-gradient-3" x1="810.49" y1="1010.7" x2="898.08" y2="1010.7" gradientTransform="translate(-400.26 195.95) rotate(90) scale(1 -1)" gradientUnits="userSpaceOnUse">
      <stop offset="0" stop-color="#ff7300"/>
      <stop offset=".18" stop-color="#f97c00"/>
      <stop offset=".47" stop-color="#ea9502"/>
      <stop offset=".55" stop-color="#e59e03"/>
      <stop offset=".87" stop-color="#e5c500"/>
      <stop offset=".99" stop-color="#bf6f00"/>
    </linearGradient>
  </defs>
  <path class="cls-1" d="M757.08,845.78c4.16-7.77,12.28-12.36,20.37-11.6,10.09.95,18.56,10.06,18.84,21.47,3-4.44,6.17-10.82,5.47-18.14-.7-7.36-4.66-8.83-5.35-14.56-1.45-12.15,13.86-26.78,29.42-31.35,10.12-2.98,18.99-1.3,27.87.39,10.62,2.01,18.92,5.65,24.39,8.52-1.65-3.95-5.66-12.01-14.32-18.19-9.6-6.85-19.44-7.49-24.39-7.74-22.26-1.15-36.84,11.5-37.94,9.68-1.16-1.93,13.69-18.4,31.74-18.19,4.03.05,8.75,1.32,18.19,3.87,8.83,2.39,16,4.81,20.9,6.58-2.65-4.47-9.25-14.1-21.68-19.74-16.45-7.47-32.07-2.95-37.16-1.16-13.12,4.6-19,13.01-20.52,11.61-1.85-1.7,4.49-16.26,17.42-23.23,12.42-6.69,25.64-3.51,30.58-2.32,9.75,2.34,16.68,7.02,20.52,10.06-1.53-3.1-9.03-17.5-25.16-22.06-11.87-3.36-22.18.37-26.32,1.94-16.84,6.35-22.86,19.49-25.55,17.81-2.88-1.81,2.24-17.96,12.77-29.42,6.5-7.08,11.58-8.58,12.77-8.9,9.1-2.49,17.08,1.77,19.35,3.1-5.35-5-15.43-12.75-28.16-12.54-9.48.16-18.74,7-36.87,20.67-14.48,10.92-21.88,16.58-29.81,26.32-8.31,10.22-13.42,20.05-16.52,27.14,13.04,23.34,26.08,46.67,39.12,70.01l.03-.03Z"/>
  <path class="cls-2" d="M875.95,798.32c-5.7-5.11-17.8-14.39-34.73-15.95-5.81-.53-16.26-.53-38.4,9.82-13.6,6.36-33.26,17.41-54.02,36.56"/>
  <path class="cls-2" d="M870.23,774.66c-13.07-12.11-24.32-15-32.13-15.39-17.31-.85-28,10.14-59.2,29.71-16.19,10.15-30.26,17.82-40.55,23.13"/>
  <path class="cls-2" d="M858.84,748.64c-16.24-13.3-28.36-14.67-35.95-13.9-19.14,1.94-27.77,19.33-59.37,45.15-13.18,10.76-24.67,18.35-31.68,22.74"/>
  <path class="cls-2" d="M797.05,852.25c.28-.93,3.63-12.69-3.73-21.1-8.07-9.23-21.68-5.99-24.87-5.08-9.52,2.71-14.69,9.76-16.26,12.1"/>
  <path class="cls-2" d="M823.27,710.35c-4.94-1.79-9.6-2.62-13.94-2.81-49.04-2.06-84.79,77.92-87.58,84.34"/>
  <path class="cls-4" d="M707.77,838.24c8.53-10.44,16.1-18.72,21.48-24.39,4.39,6.92,8.77,13.85,13.16,20.77-6.91,5.32-16.9,14.4-24.77,28.26-17.86,31.45-11.58,64.24-9.87,72.52,10.45,50.58,48.49,60.02,46.45,88.65-1.12,15.69-14.36,37.27-71.61,60.58,3.1-11.03,6.19-22.06,9.29-33.1,12.79-3.29,29.46-9.58,33.18-22.26,5.09-17.37-19.19-29.44-36.47-66.96-6.29-13.67-23.79-51.68-9.48-84.19,4.59-10.44,12.61-20.25,28.65-39.87h-.01Z"/>
  <path class="cls-6" d="M745.13,815.85c-9.35-15.01-18.43-29.9-27.23-44.65-2.84,4-5.68,8-8.52,12,6.03,11.42,13.07,23.6,21.29,36.26,8.15,12.55,16.35,23.85,24.26,33.94,2.41-3.53,4.82-7.05,7.23-10.58-5.68-8.88-11.36-17.86-17.03-26.97h0Z"/>
  <path class="cls-7" d="M759.55,843.08c-13.66-21.53-27.32-43.06-40.98-64.6-1.77,2.29-3.55,4.58-5.32,6.87,6.2,9.54,12.39,19.08,18.59,28.62,7.56,11.64,15.12,23.28,22.68,34.92l5.03-5.81h0Z"/>
  <path class="cls-5" d="M624.16,1023.47c36.69.85,52.02-11.72,63.48-1.55,7.92,7.02,13.36,24.31-3.57,72.11-51.71-7.52-103.43-15.04-155.14-22.56-7.76-42.21-.08-56.45,7.74-61.94,16.45-11.52,37.66,12.79,87.48,13.94h.01Z"/>
  <path class="cls-3" d="M664.42,1045.14c-12.69,2.17-30.82,3.85-52.26,1.16-22.66-2.85-40.62-9.53-52.65-15.1-1.03,11.87-2.06,23.74-3.1,35.61,14.58-2.79,33.28-5,54.97-4.26,19.05.66,35.55,3.43,48.77,6.58,1.42-8,2.84-16,4.26-24h0Z"/>
</svg>