<?xml version="1.0" encoding="utf-8"?>
<svg x="0px" y="0px" width="800px" height="800px" viewBox="0 0 800 800" xmlns="http://www.w3.org/2000/svg" xmlns:xlink="http://www.w3.org/1999/xlink">
  <g id="am1">
    <path id="am2" style="fill:#101010;fill-opacity:1;fill-rule:evenodd;opacity:1;stroke:none;" d="M697.092,34.5893 C608.165,62.1901,535.087,96.5982,446.15,124.203 C387.046,141.177,350.924,173.257,336.29,209.396 C281.074,309.612,230.776,397.456,180.556,499.131 C152.197,569.375,255.015,611.333,287.507,563.378 C337.366,473.701,402.97,377.139,452.817,287.468 C510.706,259.815,577.017,248.296,633.64,223.254"/>
    <path id="am3" style="fill:#101010;fill-opacity:1;fill-rule:evenodd;opacity:1;stroke:none;" d="M261.424,582.429 C261.424,582.429,270.746,563.121,270.746,563.121 C262.518,555.183,254.527,548.843,246.382,544.91 C236.6,540.187,226.667,537.873,216.559,536.959 C216.559,536.959,210.538,549.431,210.538,549.431 C210.538,549.431,188.922,558.834,188.922,558.834 C175.39,569.162,161.941,583.5,149.379,602.236 C149.379,602.236,141.486,622.731,141.486,622.731 C141.486,622.731,88.0746,658.444,88.0746,658.444 C81.6357,662.447,77.9473,665.786,76.2717,668.464 C76.2717,668.464,75.1428,670.802,75.1428,670.802 C74.4856,672.509,74.325,673.837,74.6602,674.784 C75.2988,676.578,76.7345,677.769,78.773,678.754 C81.6242,680.13,86.8475,678.683,94.0218,674.212 C94.0218,674.212,150.664,638.074,150.664,638.074 C150.664,638.074,159.331,648.208,159.331,648.208 C159.331,648.208,104.997,709.767,104.997,709.767 C100.449,715.011,97.4995,719.044,96.5286,721.055 C95.1699,723.869,94.413,726.48,94.8584,728.68 C95.3011,730.879,96.9538,732.665,99.3967,733.845 C104.689,736.4,112.089,732.536,121.175,722.042 C121.175,722.042,171.742,664.12,171.742,664.12 C171.742,664.12,182.183,671.64,182.183,671.64 C182.183,671.64,147.032,744.445,147.032,744.445 C147.032,744.445,142.564,753.698,142.564,753.698 C140.428,758.123,139.688,761.73,140.152,764.932 C140.403,767.532,142.268,769.922,145.527,771.496 C148.38,772.873,151.599,772.443,154.778,770.009 C157.967,767.579,159.818,762.523,162.925,756.088 C162.925,756.088,165.061,751.663,165.061,751.663 C165.061,751.663,198.882,679.703,198.882,679.703 C198.882,679.703,211.514,685.802,211.514,685.802 C211.514,685.802,202.813,758.979,202.813,758.979 C201.817,770.399,202.955,777.397,207.034,779.366 C209.067,780.348,211.09,780.335,212.889,779.714 C214.484,778.499,216.273,776.883,217.632,774.068 C219.186,770.85,220.484,765.029,222.16,757.408 C222.16,757.408,236.625,679.577,236.625,679.577 C241.168,674.33,246.1,668.278,249.811,661.637 C249.811,661.637,257.67,660.968,257.67,660.968 C262.227,667.138,267.579,672.694,273.121,677.853 C273.275,685.862,274.808,692.059,277.332,697.246 C280.04,702.024,283.75,705.8,288.634,708.159 C292.712,710.128,298.16,710.279,304.395,708.823 C304.395,708.823,289.74,670.501,289.74,670.501 C289.74,670.501,280.811,625.516,280.811,625.516 C276.549,613.54,269.819,599.379,261.424,582.429 z"/>
  </g>
</svg>
