<?xml version="1.0" encoding="UTF-8"?>
<svg xmlns="http://www.w3.org/2000/svg" version="1.1" viewBox="0 0 800 800">
  <defs>
    <style>
      .cls-1 {
        fill: #fff;
        fill-rule: evenodd;
      }
    </style>
  </defs>
  <!-- Generator: Adobe Illustrator 28.7.2, SVG Export Plug-In . SVG Version: 1.2.0 Build 154)  -->
  <g>
    <g id="Layer_1">
      <g id="am1">
        <path id="am2" class="cls-1" d="M697.1,34.6c-88.9,27.6-162,62-250.9,89.6-59.1,17-95.2,49.1-109.9,85.2-55.2,100.2-105.5,188.1-155.7,289.7-28.4,70.2,74.5,112.2,107,64.2,49.9-89.7,115.5-186.2,165.3-275.9,57.9-27.7,124.2-39.2,180.8-64.2"/>
        <path id="am3" class="cls-1" d="M261.4,582.4l9.3-19.3c-8.2-7.9-16.2-14.3-24.4-18.2-9.8-4.7-19.7-7-29.8-8l-6,12.5-21.6,9.4c-13.5,10.3-27,24.7-39.5,43.4l-7.9,20.5-53.4,35.7c-6.4,4-10.1,7.3-11.8,10l-1.1,2.3c-.7,1.7-.8,3-.5,4,.6,1.8,2.1,3,4.1,4,2.9,1.4,8.1,0,15.2-4.5l56.6-36.1,8.7,10.1-54.3,61.6c-4.5,5.2-7.5,9.3-8.5,11.3-1.4,2.8-2.1,5.4-1.7,7.6.4,2.2,2.1,4,4.5,5.2,5.3,2.6,12.7-1.3,21.8-11.8l50.6-57.9,10.4,7.5-35.2,72.8-4.5,9.3c-2.1,4.4-2.9,8-2.4,11.2.3,2.6,2.1,5,5.4,6.6,2.9,1.4,6.1.9,9.3-1.5,3.2-2.4,5-7.5,8.1-13.9l2.1-4.4,33.8-72,12.6,6.1-8.7,73.2c-1,11.4.1,18.4,4.2,20.4,2,1,4.1,1,5.9.3,1.6-1.2,3.4-2.8,4.7-5.6,1.6-3.2,2.9-9,4.5-16.7l14.5-77.8c4.5-5.2,9.5-11.3,13.2-17.9l7.9-.7c4.6,6.2,9.9,11.7,15.5,16.9.2,8,1.7,14.2,4.2,19.4,2.7,4.8,6.4,8.6,11.3,10.9,4.1,2,9.5,2.1,15.8.7l-14.7-38.3-8.9-45c-4.3-12-11-26.1-19.4-43.1Z"/>
      </g>
    </g>
  </g>
</svg>