<?xml version="1.0" encoding="utf-8"?>
<svg x="0px" y="0px" width="800px" height="800px" viewBox="0 0 800 800" xmlns="http://www.w3.org/2000/svg" xmlns:xlink="http://www.w3.org/1999/xlink">
  <g id="am1">
    <path id="am2" style="fill:#101010;fill-opacity:1;fill-rule:evenodd;opacity:1;stroke:none;" d="M60.2981,84.0351 C108.077,168.705,288.744,264.691,377.491,339.998 C441.885,445.541,513.722,577.709,586.77,687.675 C617.7,730.016,685.713,683.421,636.386,598.131 C602.52,540.189,439.031,243.136,405.031,206.451 C351.717,157.656,281.691,83.1288,233.503,32.5987"/>
    <path id="am3" style="fill:#101010;fill-opacity:1;fill-rule:evenodd;opacity:1;stroke:none;" d="M635.55,696.079 C635.55,696.079,680.564,658.653,691.969,649.482 C716.349,629.879,722.477,610.243,710.708,588.125 C698.94,566.007,680.151,560.851,649.351,569.386 C636.349,572.989,579.183,590.145,579.183,590.145 C579.183,590.145,635.55,696.079,635.55,696.079 z"/>
  </g>
</svg>
