<?xml version="1.0" encoding="UTF-8"?>
<svg xmlns="http://www.w3.org/2000/svg" xmlns:xlink="http://www.w3.org/1999/xlink" viewBox="0 0 2000 2000">
  <defs>
    <style>
      .cls-1 {
        fill: url(#linear-gradient);
      }

      .cls-1, .cls-2, .cls-3, .cls-4, .cls-5, .cls-6, .cls-7, .cls-8, .cls-9, .cls-10 {
        stroke: #000;
        stroke-miterlimit: 10;
      }

      .cls-2 {
        fill: url(#linear-gradient-5);
      }

      .cls-3 {
        fill: url(#linear-gradient-9);
      }

      .cls-4 {
        fill: url(#linear-gradient-6);
      }

      .cls-5 {
        fill: url(#linear-gradient-10);
      }

      .cls-6 {
        fill: url(#linear-gradient-4);
      }

      .cls-7 {
        fill: url(#linear-gradient-3);
      }

      .cls-8 {
        fill: url(#linear-gradient-7);
      }

      .cls-9 {
        fill: url(#linear-gradient-8);
      }

      .cls-10 {
        fill: url(#linear-gradient-2);
      }
    </style>
    <linearGradient id="linear-gradient" x1="214.07" y1="398.37" x2="447.44" y2="398.37" gradientTransform="translate(430.74 220.95) rotate(9.76) scale(1.77 .99) skewX(15)" gradientUnits="userSpaceOnUse">
      <stop offset="0" stop-color="#441980"/>
      <stop offset=".16" stop-color="#47318c"/>
      <stop offset=".4" stop-color="#441980"/>
      <stop offset=".63" stop-color="#441980"/>
      <stop offset="1" stop-color="#47318c"/>
    </linearGradient>
    <linearGradient id="linear-gradient-2" x1="1158.66" y1="782.76" x2="1697.22" y2="782.76" gradientUnits="userSpaceOnUse">
      <stop offset="0" stop-color="#441980"/>
      <stop offset=".31" stop-color="#47318c"/>
      <stop offset=".52" stop-color="#441980"/>
      <stop offset="1" stop-color="#47318c"/>
    </linearGradient>
    <linearGradient id="linear-gradient-3" x1="1625.96" y1="715.19" x2="1741.88" y2="715.19" xlink:href="#linear-gradient-2"/>
    <linearGradient id="linear-gradient-4" x1="1705.06" y1="702.79" x2="1753.72" y2="702.79" xlink:href="#linear-gradient-2"/>
    <linearGradient id="linear-gradient-5" x1="1696.99" y1="948.48" x2="1748.97" y2="948.48" gradientTransform="translate(-84.27 -26.59) rotate(-6.69)" xlink:href="#linear-gradient-2"/>
    <linearGradient id="linear-gradient-6" x1="1684.57" y1="1132.93" x2="1724.04" y2="1132.93" gradientTransform="translate(-149.03 -38.24) rotate(-11.45)" xlink:href="#linear-gradient-2"/>
    <linearGradient id="linear-gradient-7" x1="1581.62" y1="634.17" x2="1648.81" y2="634.17" gradientTransform="translate(60.92 20.4) rotate(3.8) scale(1.04 1)" xlink:href="#linear-gradient-2"/>
    <linearGradient id="linear-gradient-8" x1="1387.99" y1="897.4" x2="1422.03" y2="897.4" gradientTransform="translate(-46.24 -138.83) rotate(-6.83) scale(1.18 1.15)" gradientUnits="userSpaceOnUse">
      <stop offset="0" stop-color="#040108"/>
      <stop offset=".31" stop-color="#1f153d"/>
      <stop offset=".52" stop-color="#260e47"/>
      <stop offset="1" stop-color="#000"/>
    </linearGradient>
    <linearGradient id="linear-gradient-9" x1="1380.69" y1="775.55" x2="1739.06" y2="775.55" gradientTransform="matrix(1,0,0,1,0,0)" xlink:href="#linear-gradient-8"/>
    <linearGradient id="linear-gradient-10" x1="-2677.65" y1="1744.63" x2="-2282.72" y2="1744.63" gradientTransform="translate(-2594.04 477.33) rotate(-142.07) scale(1.26 1.2)" xlink:href="#linear-gradient-8"/>
  </defs>
  <g id="Robe">
    <path class="cls-1" d="M1343.46,823.15c-10.49,26.96-137.73,7.8-235.78-29.66-96.92-37.03-203.84-106.66-193.81-133.66,9.96-26.82,135.17-11.17,233.98,26.07,100.72,37.96,206.05,110.41,195.61,137.25Z"/>
  </g>
  <g id="Arms">
    <path class="cls-10" d="M1174.58,696.5c68.15,33.35,116.76,58.94,154.73,80.5,13.96,7.93,36.92,21.22,69.54,24.62,21.08,2.19,36.91-.75,69.54-8.62,73.54-17.74,112.1-25.57,189.23-41.23,11.89-2.41,34.21-6.76,38.77,1.44,3.53,6.34-5.13,17.4-8.21,21.33-29.69,37.91-105.27,54.68-196,77.44-52.16,13.08-68.37,17.87-96.92,16.92-33.09-1.1-55.07-8.97-86.97-18.87-34.66-10.75-85.14-25.17-149.62-39.2"/>
    <path class="cls-7" d="M1625.96,770.49c14.68-13.96,16.73-24.04,15.88-30.67-1.12-8.85-7.27-10.52-7.12-20.27.17-11.61,9.04-20.16,13.69-24.65,3.97-3.83,5.13-3.48,5.48-3.29,1.45.83.04,5.57-.55,8.22-2.21,9.93-.37,23.94,4.93,28.48,10.43,8.94,41.29-12.79,55.32-25.2,14.44-12.76,16.04-20.04,15.88-24.65-.33-9.79-8.88-16.14-7.12-18.08,1.87-2.07,14.1,2.37,18.08,10.95,4.63,9.99-2.06,25.23-16.98,37.79"/>
    <path class="cls-6" d="M1705.06,717.67c8.2-2.24,20.06-6.81,29.9-16.43,4.28-4.18,9.3-9.23,9.2-15.88-.08-5.36-3.44-9.01-2.3-9.86,1.38-1.03,8.46,2.77,10.93,8.76,3.15,7.65-2.35,16.05-6.9,23-3.8,5.81-10.91,14.84-23.58,23"/>
    <path class="cls-2" d="M1713.28,731.68c14.8-3.07,24.46-9.08,29.7-13,8.41-6.28,10.5-10.95,11.12-14.54.26-1.52.96-5.59-1.26-8.95-2.83-4.28-7.91-4.85-7.7-5.71.24-.97,7.21-1.77,12.03,2.1,4.36,3.5,4.85,9.13,5.01,10.99.83,9.52-5.3,16.96-8.7,21.08-9.02,10.94-20.75,15.41-27.34,17.27"/>
    <path class="cls-4" d="M1728.23,743.81c3.43.65,12.41,1.64,20.98-5.52,1.81-1.51,11.55-9.66,9.95-17.73-.53-2.67-2.27-4.8-1.76-5.28.63-.59,4.4,1.72,6.03,5.06,4.05,8.28-5.37,20.09-6.37,21.33-9.5,11.64-22.98,9.77-26.27,9.18"/>
    <path class="cls-8" d="M1661.84,797.03c5.45-5.75,13.97-12.73,25.15-13.61,9.3-.73,11.58,3.45,19.59,2.33,14.64-2.04,26.87-18.76,28.48-34.65.67-6.59-.59-12.01-1.57-15.17"/>
    <path class="cls-9" d="M1702.31,714.23c10.09-5.07,16.19-11.45,19.44-15.45,5.15-6.33,11.04-13.68,9.68-22.79-.92-6.19-4.99-10.55-7.62-12.87,8.65,2.3,11.63,6.37,12.73,8.33,5.8,10.32-2.69,29.55-24.13,44.84"/>
    <path class="cls-3" d="M1711.26,712.94c-.97-.06-1.97-.08-3.06.01-13.63,1.13-25.78,14.03-46.28,28.01-6.01,4.1-11.07,7.12-14.91,9.42-3.59,2.14-13.23,7.88-23.69,12.92-11.06,5.33-21,8.9-30.31,11.85-41.4,13.09-213.09,58.87-212.31,62.77.52,2.62,71.66-12.84,156.31-22.15,26.15-2.88,51.97-8.45,78.15-11.08,17.54-1.76,29.06-2.4,44.41-8.87,17.78-7.49,18.32-13.37,38.82-22.31,22.44-9.79,30.9-6.72,36.82-16,6.35-9.95,4.83-26.34-4.36-35.9-7.44-7.74-17.56-8.54-19.59-8.67Z"/>
    <path class="cls-5" d="M1163.8,737.59c-17.68-15.64-35-33.86-67.33-45.5-27.36-9.85-49.36-9.19-75.95-13.04-.07,1.26-.09,2.68.02,4.23.16,2.27.54,4.27.97,5.92.03,1.17.08,3.13.18,5.56.22,5.61.46,8.29.75,14.44.07,1.47.17,3.73.26,6.52,17.77,7.61,41.96,17.86,70.75,29.71,154.13,63.47,285.37,109.29,287.23,105.43.68-1.42-123.74-30.91-216.87-113.28Z"/>
  </g>
</svg>