<?xml version="1.0" encoding="UTF-8"?>
<svg id="Arms" xmlns="http://www.w3.org/2000/svg" version="1.1" viewBox="0 0 2000 2000">
  <!-- Generator: Adobe Illustrator 29.1.0, SVG Export Plug-In . SVG Version: 2.1.0 Build 142)  -->
  <defs>
    <style>
      .st0 {
        fill: #00738c;
        stroke: #000;
      }

      .st0, .st1 {
        stroke-miterlimit: 10;
      }

      .st1 {
        fill: none;
        stroke: aqua;
        stroke-width: 2px;
      }
    </style>
  </defs>
  <polyline class="st1" points="780.9 1131.4 780.9 1154.1 763.7 1151.1 778.3 1198.7"/>
  <path class="st0" d="M539.9,983.6c2.6-9.3,13.3-47.8,34.5-49.2,15.6-1,34.2,18.3,41,47.6,0,0,21,25.8,46.8,46,3,2.3,39.5,30.3,87,40.2,83.8,17.5,123.6-37.7,162.5-13.1,32.4,20.5,44.1,83.5,18.1,117.3-28.1,36.5-94.4,31.3-132.1,7.4-41-26-38.5-68.2-77.1-82-27.5-9.9-36.1,13.5-75.5,11.5-45.7-2.3-97.1-34.2-107.5-78.8-4.8-20.7.3-39.1,2.5-46.8h0Z"/>
  <polyline class="st0" points="872.8 1187.4 971.3 1129.1 872.8 1063.5"/>
  <polyline class="st1" points="835.1 1154.1 872.8 1224.3 928.8 1198.7 950.1 1224.3"/>
  <path class="st1" d="M811.7,1143.7l-20.9-47.4s36.9-14.8,40.6-14.8-20.3-43.7-20.3-43.7"/>
  <polyline class="st1" points="898.4 1122.1 862.1 1098.1 922 1059.2 901.1 1026.8 901.1 1009.8"/>
  <polyline class="st1" points="819.7 1160.9 803.1 1168.3 822.2 1191.3 808.6 1208.3"/>
</svg>