<?xml version="1.0" encoding="UTF-8"?>
<svg id="Arms" xmlns="http://www.w3.org/2000/svg" version="1.1" xmlns:xlink="http://www.w3.org/1999/xlink" viewBox="0 0 2000 2000">
  <!-- Generator: Adobe Illustrator 29.1.0, SVG Export Plug-In . SVG Version: 2.1.0 Build 142)  -->
  <defs>
    <style>
      .st0 {
        fill: url(#linear-gradient);
      }

      .st0, .st1, .st2, .st3 {
        stroke-miterlimit: 10;
      }

      .st0, .st2, .st3 {
        stroke: #000;
      }

      .st1 {
        fill: none;
      }

      .st1, .st4 {
        stroke: aqua;
      }

      .st4 {
        fill: url(#radial-gradient);
        stroke-miterlimit: 10;
        stroke-width: 1px;
      }

      .st2 {
        fill: url(#linear-gradient2);
      }

      .st3 {
        fill: url(#linear-gradient1);
      }
    </style>
    <linearGradient id="linear-gradient" x1="570.5" y1="1125.6" x2="887.5" y2="1125.6" gradientTransform="translate(1217.3 -313.2) rotate(-180) scale(1 -1)" gradientUnits="userSpaceOnUse">
      <stop offset="0" stop-color="#c0c2c2"/>
      <stop offset="1" stop-color="#bcc7db"/>
    </linearGradient>
    <radialGradient id="radial-gradient" cx="508.3" cy="1203.9" fx="508.3" fy="1203.9" r="61.7" gradientTransform="translate(1919.7 398.9) rotate(-135) scale(1 -1)" gradientUnits="userSpaceOnUse">
      <stop offset="0" stop-color="#00d0f0"/>
      <stop offset="1" stop-color="#3075ff"/>
    </radialGradient>
    <linearGradient id="linear-gradient1" x1="668.9" y1="1094.2" x2="733.8" y2="1094.2" gradientTransform="translate(1217.3 -313.2) rotate(-180) scale(1 -1)" gradientUnits="userSpaceOnUse">
      <stop offset="0" stop-color="#00d0f0"/>
      <stop offset="1" stop-color="#3075ff"/>
    </linearGradient>
    <linearGradient id="linear-gradient2" x1="587" y1="1054.8" x2="665.4" y2="1054.8" gradientTransform="translate(1217.3 -313.2) rotate(-180) scale(1 -1)" gradientUnits="userSpaceOnUse">
      <stop offset="0" stop-color="#00d0f0"/>
      <stop offset="1" stop-color="#3075ff"/>
    </linearGradient>
  </defs>
  <path class="st0" d="M413.6,869.2c24.5-11.3,44-20.2,72-27.7,36.7-9.8,58.9-15.8,85.8-9.2,30,7.3,37.9,23.3,52.4,17.9,19.4-7.3,30.6-45.3,17.1-67-9.2-14.7-27.8-18.7-47.3-21-106.7-12.7-159.7,36.1-206.4,7.7-32.4-19.7-33.2-59.3-43.8-57.6-10.6,1.7-18.3,43-10.2,200.3,31.4-19.6,59.2-33.6,80.3-43.4h0Z"/>
  <circle class="st4" cx="709.1" cy="890.7" r="61.7" transform="translate(-422.2 762.3) rotate(-45)"/>
  <path class="st3" d="M512.3,854.3c5,3.7,12.9,3.7,18.5.9,23.6-11.7,26.1-84.5-8.3-125.5-13-15.5-32.7-28.1-37.8-24-4.1,3.2,3.5,14.6,11.1,41.5,6.1,21.8,12.2,43.4,12,70.2-.1,18.5-3.2,31.1,4.6,36.9h0Z"/>
  <path class="st2" d="M583.4,857.2c-3.7-2.2-7.4-4.3-11.1-6.5,35.2-53.6,37.9-92.8,32.3-120-10.9-52.9-60.2-94.5-51.7-103.4,3.3-3.4,12.7.7,17.5,2.8,37.6,16.4,51.2,59.8,54.5,70.2,22.9,72.9-33.9,147.2-41.5,156.9h0Z"/>
  <path class="st1" d="M724.9,991.7c46.8-11.1,81.7-47.5,88.2-91.1,7-47-22.3-81.9-27.1-87.4"/>
  <path class="st1" d="M693.3,967.4c-24.2,3.7-48.2-6.1-61.5-25.2-16-23-13.8-55.6,6.2-78.2"/>
  <path class="st1" d="M745.6,805.5c-4.7-2.8-22.3-12.7-44.9-8.6-31.1,5.6-45.2,32.5-46.8,35.7"/>
  <path class="st1" d="M744.4,744.6c3.1-1.5,30.7-14.3,57.8,0,23.6,12.4,37,40.2,32.6,68.9"/>
  <path class="st1" d="M788.1,856.6c1.7,5.6,11.5,40.6-9.2,74.5-16.5,26.9-41.9,36.3-49.2,38.8"/>
  <path class="st1" d="M773.3,902.8c-4.5-4.4-14.9-13.3-30.8-16.6-27.1-5.7-48.2,9.7-51.7,12.3"/>
  <path class="st1" d="M633.6,910.8c5.9-10.5,19.5-30.9,44.9-45.5,40.5-23.3,81.2-14.7,91.1-12.3"/>
  <path class="st1" d="M719.8,968c3.3-10.7,6-24.9,4.3-41.2-5.7-54.5-55.4-84.3-62.8-88.6"/>
  <path class="st1" d="M767.2,929.2c-9.5-8.9-18.7-13.8-25.9-16.6-25.3-10.1-49.6-4.6-70.1,0-13.1,3-24.1,6.9-32.6,10.5"/>
  <path class="st1" d="M644.1,851.7c5.7-2.9,21.2-9.7,41.2-6.8,25.6,3.8,40.3,21,43.7,25.2"/>
  <path class="st1" d="M706.9,966.8c-3.8-11.8-9.3-25.3-17.2-39.4-19.2-34.1-44.1-56.1-61.5-68.9"/>
  <path class="st1" d="M770.2,792c3.7,1.8,60.7,30.9,67.1,91.1,5.5,52.1-29.3,104.7-85.5,123.7"/>
  <path class="st1" d="M702.5,757.5c-4.6-.8-15.7-1.9-26.5,4.3-14.7,8.4-22.6,27-19.7,46.8"/>
  <path class="st1" d="M733.3,779.7c5.6,1.2,25.7,6.2,40.6,25.2,17.3,22.1,14.7,46.9,14.1,51.7"/>
  <path class="st1" d="M711.2,986.5c-21,14.9-48.5,17-71.4,5.5-22.4-11.3-37-33.9-38.2-59.1"/>
  <path class="st1" d="M721,1004.3c-4.8,5.1-33,33.7-76.9,33.2-56.8-.6-87.4-49.3-89.2-52.3"/>
  <path class="st1" d="M610.2,941.5c-1.5-1.3-19.1-16.7-16.6-40.6,2.1-20.4,17.3-31.6,19.7-33.2"/>
  <path class="st1" d="M596.7,977.8c-8.7-8.6-21.4-23.4-30.8-44.9-11.9-27.4-12.4-52-11.7-65.2"/>
  <path class="st1" d="M564.1,970.5c-4-2.5-32.5-20.8-36.9-56-2.9-23.3,6.2-41.1,9.8-47.4"/>
  <path class="st1" d="M726.2,1039.4c21.4,23,54.9,27.8,78.8,12.9,18.7-11.6,29.3-33.8,27.7-57.2"/>
  <path class="st1" d="M875.2,966.8c6.2-11.5,11.9-26.7,12.2-44.7,1.2-64.9-68.4-105.3-74.2-108.5"/>
  <path class="st1" d="M740.4,711.4c-2.6-1.7-23.8-15.3-48.6-6.8-20.2,6.9-34.6,25.7-36.9,48"/>
</svg>