<?xml version="1.0" encoding="UTF-8"?>
<svg id="Arms" xmlns="http://www.w3.org/2000/svg" version="1.1" xmlns:xlink="http://www.w3.org/1999/xlink" viewBox="0 0 2000 2000">
  <!-- Generator: Adobe Illustrator 29.1.0, SVG Export Plug-In . SVG Version: 2.1.0 Build 142)  -->
  <defs>
    <style>
      .st0 {
        fill: url(#linear-gradient);
      }

      .st0, .st1, .st2 {
        stroke: #000;
        stroke-miterlimit: 10;
      }

      .st3 {
        fill: url(#radial-gradient);
        stroke: aqua;
        stroke-miterlimit: 10;
        stroke-width: 1px;
      }

      .st1 {
        fill: url(#linear-gradient2);
      }

      .st2 {
        fill: url(#linear-gradient1);
      }
    </style>
    <linearGradient id="linear-gradient" x1="570.5" y1="1125.6" x2="887.5" y2="1125.6" gradientTransform="translate(1334.1 -204.8) rotate(-180) scale(1 -1)" gradientUnits="userSpaceOnUse">
      <stop offset="0" stop-color="#61b5c2"/>
      <stop offset="1" stop-color="#9cb1db"/>
    </linearGradient>
    <radialGradient id="radial-gradient" cx="508.3" cy="1203.9" fx="508.3" fy="1203.9" r="61.7" gradientTransform="translate(2036.5 507.2) rotate(-135) scale(1 -1)" gradientUnits="userSpaceOnUse">
      <stop offset="0" stop-color="#00d0f0"/>
      <stop offset="1" stop-color="#3075ff"/>
    </radialGradient>
    <linearGradient id="linear-gradient1" x1="668.9" y1="1094.2" x2="733.8" y2="1094.2" gradientTransform="translate(1334.1 -204.8) rotate(-180) scale(1 -1)" gradientUnits="userSpaceOnUse">
      <stop offset="0" stop-color="#00d0f0"/>
      <stop offset="1" stop-color="#3075ff"/>
    </linearGradient>
    <linearGradient id="linear-gradient2" x1="587" y1="1054.8" x2="665.4" y2="1054.8" gradientTransform="translate(1334.1 -204.8) rotate(-180) scale(1 -1)" gradientUnits="userSpaceOnUse">
      <stop offset="0" stop-color="#00d0f0"/>
      <stop offset="1" stop-color="#3075ff"/>
    </linearGradient>
  </defs>
  <path class="st0" d="M530.3,977.6c24.5-11.3,44-20.2,72-27.7,36.7-9.8,58.9-15.8,85.8-9.2,30,7.3,37.9,23.3,52.4,17.9,19.4-7.3,30.6-45.3,17.1-67-9.2-14.7-27.8-18.7-47.3-21-106.7-12.7-159.7,36.1-206.4,7.8-32.4-19.7-33.2-59.3-43.8-57.6-10.6,1.7-18.3,43-10.2,200.3,31.4-19.6,59.2-33.6,80.3-43.4h0Z"/>
  <circle class="st3" cx="825.8" cy="999.1" r="61.7" transform="translate(-464.6 876.6) rotate(-45)"/>
  <path class="st2" d="M629.1,962.7c5,3.7,12.9,3.7,18.5.9,23.6-11.7,26.1-84.5-8.3-125.5-13-15.5-32.7-28.1-37.8-24-4.1,3.2,3.5,14.6,11.1,41.5,6.1,21.8,12.2,43.4,12,70.2-.1,18.5-3.2,31.1,4.6,36.9h0Z"/>
  <path class="st1" d="M700.2,965.6c-3.7-2.2-7.4-4.3-11.1-6.5,35.2-53.6,37.9-92.8,32.3-120-10.9-52.9-60.2-94.5-51.7-103.4,3.3-3.4,12.7.7,17.5,2.8,37.6,16.4,51.2,59.8,54.5,70.2,22.9,72.9-33.9,147.2-41.5,156.9h0Z"/>
</svg>