<?xml version="1.0" encoding="UTF-8"?>
<svg id="Arms" xmlns="http://www.w3.org/2000/svg" version="1.1" xmlns:xlink="http://www.w3.org/1999/xlink" viewBox="0 0 2000 2000">
  <!-- Generator: Adobe Illustrator 29.1.0, SVG Export Plug-In . SVG Version: 2.1.0 Build 142)  -->
  <defs>
    <style>
      .st0 {
        fill: url(#linear-gradient);
      }

      .st0, .st1, .st2, .st3, .st4, .st5, .st6 {
        stroke-miterlimit: 10;
      }

      .st0, .st2, .st3, .st4, .st5, .st6 {
        stroke: #000;
      }

      .st1 {
        fill: none;
        stroke: #c1272d;
      }

      .st2, .st3, .st5 {
        fill: #c1272d;
      }

      .st2, .st6 {
        stroke-width: 3px;
      }

      .st3 {
        stroke-width: 5px;
      }

      .st4 {
        fill: url(#linear-gradient1);
      }

      .st6 {
        fill: url(#linear-gradient2);
      }
    </style>
    <linearGradient id="linear-gradient" x1="505.7" y1="1198.3" x2="659.7" y2="1198.3" gradientTransform="translate(-400.3 195.9) rotate(90) scale(1 -1)" gradientUnits="userSpaceOnUse">
      <stop offset="0" stop-color="#ff7300"/>
      <stop offset=".2" stop-color="#f97c00"/>
      <stop offset=".5" stop-color="#ea9502"/>
      <stop offset=".6" stop-color="#e59e03"/>
      <stop offset=".9" stop-color="#e5c500"/>
      <stop offset="1" stop-color="#bf6f00"/>
    </linearGradient>
    <linearGradient id="linear-gradient1" x1="575.2" y1="1136" x2="657.5" y2="1136" gradientTransform="translate(-400.3 195.9) rotate(90) scale(1 -1)" gradientUnits="userSpaceOnUse">
      <stop offset="0" stop-color="#ff7300"/>
      <stop offset=".2" stop-color="#f97c00"/>
      <stop offset=".5" stop-color="#ea9502"/>
      <stop offset=".6" stop-color="#e59e03"/>
      <stop offset=".9" stop-color="#e5c500"/>
      <stop offset="1" stop-color="#bf6f00"/>
    </linearGradient>
    <linearGradient id="linear-gradient2" x1="810.5" y1="1010.7" x2="898.1" y2="1010.7" gradientTransform="translate(-400.3 195.9) rotate(90) scale(1 -1)" gradientUnits="userSpaceOnUse">
      <stop offset="0" stop-color="#ff7300"/>
      <stop offset=".2" stop-color="#f97c00"/>
      <stop offset=".5" stop-color="#ea9502"/>
      <stop offset=".6" stop-color="#e59e03"/>
      <stop offset=".9" stop-color="#e5c500"/>
      <stop offset="1" stop-color="#bf6f00"/>
    </linearGradient>
  </defs>
  <path class="st0" d="M757.1,845.8c4.2-7.8,12.3-12.4,20.4-11.6,10.1,1,18.6,10.1,18.8,21.5,3-4.4,6.2-10.8,5.5-18.1-.7-7.4-4.7-8.8-5.3-14.6-1.5-12.2,13.9-26.8,29.4-31.3,10.1-3,19-1.3,27.9.4,10.6,2,18.9,5.7,24.4,8.5-1.7-4-5.7-12-14.3-18.2-9.6-6.8-19.4-7.5-24.4-7.7-22.3-1.2-36.8,11.5-37.9,9.7-1.2-1.9,13.7-18.4,31.7-18.2,4,0,8.8,1.3,18.2,3.9,8.8,2.4,16,4.8,20.9,6.6-2.7-4.5-9.2-14.1-21.7-19.7-16.5-7.5-32.1-3-37.2-1.2-13.1,4.6-19,13-20.5,11.6-1.8-1.7,4.5-16.3,17.4-23.2,12.4-6.7,25.6-3.5,30.6-2.3,9.8,2.3,16.7,7,20.5,10.1-1.5-3.1-9-17.5-25.2-22.1-11.9-3.4-22.2.4-26.3,1.9-16.8,6.3-22.9,19.5-25.5,17.8-2.9-1.8,2.2-18,12.8-29.4,6.5-7.1,11.6-8.6,12.8-8.9,9.1-2.5,17.1,1.8,19.3,3.1-5.3-5-15.4-12.7-28.2-12.5-9.5.2-18.7,7-36.9,20.7-14.5,10.9-21.9,16.6-29.8,26.3-8.3,10.2-13.4,20-16.5,27.1,13,23.3,26.1,46.7,39.1,70h0Z"/>
  <path class="st1" d="M876,798.3c-5.7-5.1-17.8-14.4-34.7-16-5.8-.5-16.3-.5-38.4,9.8-13.6,6.4-33.3,17.4-54,36.6"/>
  <path class="st1" d="M870.2,774.7c-13.1-12.1-24.3-15-32.1-15.4-17.3-.8-28,10.1-59.2,29.7-16.2,10.2-30.3,17.8-40.5,23.1"/>
  <path class="st1" d="M858.8,748.6c-16.2-13.3-28.4-14.7-36-13.9-19.1,1.9-27.8,19.3-59.4,45.2-13.2,10.8-24.7,18.3-31.7,22.7"/>
  <path class="st1" d="M797.1,852.2c.3-.9,3.6-12.7-3.7-21.1-8.1-9.2-21.7-6-24.9-5.1-9.5,2.7-14.7,9.8-16.3,12.1"/>
  <path class="st1" d="M823.3,710.3c-4.9-1.8-9.6-2.6-13.9-2.8-49-2.1-84.8,77.9-87.6,84.3"/>
  <path class="st3" d="M707.8,838.2c8.5-10.4,16.1-18.7,21.5-24.4,4.4,6.9,8.8,13.8,13.2,20.8-6.9,5.3-16.9,14.4-24.8,28.3-17.9,31.5-11.6,64.2-9.9,72.5,10.5,50.6,48.5,60,46.4,88.7-1.1,15.7-14.4,37.3-71.6,60.6,3.1-11,6.2-22.1,9.3-33.1,12.8-3.3,29.5-9.6,33.2-22.3,5.1-17.4-19.2-29.4-36.5-67-6.3-13.7-23.8-51.7-9.5-84.2,4.6-10.4,12.6-20.2,28.7-39.9h0Z"/>
  <path class="st4" d="M745.1,815.8c-9.3-15-18.4-29.9-27.2-44.7-2.8,4-5.7,8-8.5,12,6,11.4,13.1,23.6,21.3,36.3,8.2,12.5,16.3,23.8,24.3,33.9,2.4-3.5,4.8-7,7.2-10.6-5.7-8.9-11.4-17.9-17-27h0Z"/>
  <path class="st5" d="M759.6,843.1c-13.7-21.5-27.3-43.1-41-64.6-1.8,2.3-3.5,4.6-5.3,6.9,6.2,9.5,12.4,19.1,18.6,28.6,7.6,11.6,15.1,23.3,22.7,34.9l5-5.8h0Z"/>
  <path class="st6" d="M624.2,1023.5c36.7.8,52-11.7,63.5-1.5,7.9,7,13.4,24.3-3.6,72.1-51.7-7.5-103.4-15-155.1-22.6-7.8-42.2,0-56.5,7.7-61.9,16.4-11.5,37.7,12.8,87.5,13.9h0Z"/>
  <path class="st2" d="M664.4,1045.1c-12.7,2.2-30.8,3.8-52.3,1.2-22.7-2.8-40.6-9.5-52.6-15.1-1,11.9-2.1,23.7-3.1,35.6,14.6-2.8,33.3-5,55-4.3,19,.7,35.5,3.4,48.8,6.6,1.4-8,2.8-16,4.3-24h0Z"/>
</svg>