<?xml version="1.0" encoding="UTF-8"?>
<svg id="Layer_1" xmlns="http://www.w3.org/2000/svg" viewBox="0 0 2000 2000">
  <defs>
    <style>
      .cls-1 {
        fill: #d15919;
      }

      .cls-1, .cls-2, .cls-3 {
        stroke: #000;
        stroke-miterlimit: 10;
      }

      .cls-2 {
        fill: #666;
      }

      .cls-3 {
        fill: #4d4d4d;
      }
    </style>
  </defs>
  <path class="cls-2" d="M308.33,666.67c-32.22,28.89-64.44,57.78-96.67,86.67,82.78,20.56,165.56,41.11,248.33,61.67,72.78,15.56,145.56,31.11,218.33,46.67-21.67-34.44-43.33-68.89-65-103.33l-305-91.67Z"/>
  <path class="cls-2" d="M1040.2,734.56c-9.96,41.46-19.91,82.92-29.87,124.39,78.36-27.81,156.73-55.61,235.09-83.42,67.49-26.54,134.99-53.08,202.48-79.61-36.7-16.86-73.4-33.72-110.1-50.58-99.2,29.74-198.4,59.48-297.61,89.23Z"/>
  <path class="cls-2" d="M593.33,733.33c33.33,51.67,66.67,103.33,100,155,135-11.11,270-22.22,405-33.33-19.44-41.67-38.89-83.33-58.33-125-148.89,1.11-297.78,2.22-446.67,3.33Z"/>
  <ellipse class="cls-2" cx="1421.67" cy="650.83" rx="116.67" ry="67.5"/>
  <ellipse class="cls-1" cx="1495.7" cy="500.1" rx="56.9" ry="46.44"/>
  <path class="cls-3" d="M1334.46,638.64c40.07-58.8,80.14-117.61,120.21-176.41,4.01,21.7,20.2,38.99,41.03,43.9,23.25,5.48,48.04-5.48,60.31-27.08-9.57,59.35-19.15,118.7-28.72,178.05"/>
  <path class="cls-1" d="M1477.64,491.77c-13.32,9.85-20.66,20.27-24.62,27.08-4.29,7.39-12.77,21.98-7.38,28.31,3.48,4.09,12.52,4.46,16.82.41,5.49-5.17-.36-14.18,2.87-25.85,2.66-9.61,10.27-16.61,18.87-21.74"/>
</svg>